/* XPM */
static char * enemy_left_run_4_xpm[] = {
"32 32 12 1",
" 	c #000000",
".	c #141412",
"+	c #ECCBAC",
"@	c #BD9168",
"#	c #825E3A",
"$	c #4B3720",
"%	c #551A1C",
"&	c #AE3838",
"*	c #5C8EA5",
"=	c #8AC6E0",
"-	c #3B535E",
";	c #242A36",
"            ........            ",
"           .++++++@@.           ",
"          .++++++++@@.          ",
"         .+++++++++@@#.         ",
"         .++++++++@@@##.        ",
"         .@++++++@@@###.        ",
"         $..@...#######.        ",
"         $..+...######$.        ",
"         $.$+$..##$###$.        ",
"         .@#.@+++@$##$.         ",
"         .@@.+++@#.#$.          ",
"          .#@@$.$....           ",
"         .%....$$.&&.           ",
"        .%%@@@@#*&&...          ",
"        .%*=====*&-***.         ",
"       .-;-==****;***==.        ",
"       .-.-==***-;====*.        ",
"       ..;-==**-;;.....*.       ",
"        ..-...--;;.--**..       ",
"          .............         ",
"            ..$$....            ",
"           .%....-&-.           ",
"          .;;.$$----.           ",
"          .;;#.#---;.           ",
"          .--.$$***.            ",
"           ...##...             ",
"           ...@@#....           ",
"          ....@@#####           ",
"          .....######           ",
"           ...      #           ",
"           ...                  ",
"          ....                  "};
