/* XPM */
static char * enemy_right_idle_0_xpm[] = {
"32 32 16 1",
" 	c #000000",
".	c #141412",
"+	c #191B1A",
"@	c #FFFFFF",
"#	c #141412",
"$	c #BD9168",
"%	c #ECCBAC",
"&	c #825E3A",
"*	c #4B3720",
"=	c #AE3838",
"-	c #551A1C",
";	c #242A36",
">	c #5C8EA5",
",	c #3B535E",
"'	c #8AC6E0",
")	c #FFFFFF",
"                                ",
"                                ",
"          ########              ",
"         #$$%%%%%%#             ",
"        #$$%%%%%%%%#            ",
"       #&$$%%%%%%%%%#           ",
"      #&&$$$%%%%%%%%#           ",
"      #&&&$$$%%%%%%$#           ",
"      #&&&&&&&###$##*           ",
"      #*&&&&&&###%##*           ",
"      #*&&&*&&##*%*#*           ",
"       #*&&*$%%%$#&$#           ",
"        #*&#&$%%%#$$#           ",
"         ####*#*$$&#            ",
"         #==#**####-#           ",
"       ###;==>&$$$$--#          ",
"      #>>>,;=>'''''>-,#         ",
"     #''>>>#;>>>>'',;,#         ",
"     #>''''#;,>>>'',;;,#        ",
"    #>######;;,>>'',;,##        ",
"    ##>>,,##;;,,###,###         ",
"      ##############            ",
"          ####**##              ",
"          ==&####--#            ",
"         #,=,&**#;-;#           ",
"        #,,,,&&#&;;;;#          ",
"        #>>>### #*,,,#          ",
"        #####   #*&&#           ",
"        #**#     #&&#           ",
"       #&&*#     #**#           ",
"       #&&#      #**#           ",
"      #$$&#      #*&&#          "};
