/* XPM */
static char * enemy_left_idle_2_xpm[] = {
"32 32 13 1",
" 	c #000000",
".	c #141412",
"+	c #ECCBAC",
"@	c #BD9168",
"#	c #825E3A",
"$	c #4B3720",
"%	c #AE3838",
"&	c #551A1C",
"*	c #5C8EA5",
"=	c #8AC6E0",
"-	c #242A36",
";	c #3B535E",
">	c #FFFFFF",
"                                ",
"                                ",
"                                ",
"                                ",
"              ........          ",
"             .++++++@@.         ",
"            .++++++++@@.        ",
"           .+++++++++@@#.       ",
"           .+++++++++@@##.      ",
"           .++++++++@@###.      ",
"           .@++++++@#####.      ",
"           $..@...######$.      ",
"           $..+...##$###$.      ",
"           $.$+$..#@$##$.       ",
"           .@#.@+++#.#$.        ",
"           .@@.+++@....         ",
"            .#@@$....%.         ",
"           .&@@@@#*%%...        ",
"          .&*=====*%--...       ",
"         .;&;==****-.;***.      ",
"        .;;-;==***;-.***==.     ",
"        ..--;==**;--.====**.    ",
"         ...;...;;--..;;**..    ",
"            ..............      ",
"            .&&....#%%          ",
"           .-&-.$$#;%;.         ",
"          .----#.##;;;;.        ",
"          .;;;$. ...***.        ",
"           .##$.   .....        ",
"           .$$.     .$##.       ",
"           .$$.      .##.       ",
"          .##$.      .#@@.      "};
