/* XPM */
static char * death_right_2_xpm[] = {
"64 32 12 1",
" 	c #000000",
".	c #261A26",
"+	c #141412",
"@	c #5F2E5C",
"#	c #932D8B",
"$	c #804A1E",
"%	c #FDFDFD",
"&	c #F09A53",
"*	c #7C6C5E",
"=	c #CBC3BC",
"-	c #432341",
";	c #47280D",
"                                                                ",
"                                                                ",
"                                                                ",
"                                                                ",
"                                                                ",
"                                                                ",
"                                                                ",
"                          ...         .++                       ",
"                          .@@..      .###+                      ",
"                           .@@@.  ...@@###+                     ",
"                            .@@@..$.##@@###+                    ",
"                             .#@@$$$#######+                    ",
"                              ##@@$$$######+                    ",
"                              .##@@$$$#####+                    ",
"                             .%%##@@$&&##@#+                    ",
"                            +%%%%#@##&&&##@+                    ",
"                       ++##+%%%%%%*###&&&##+                    ",
"                      +@####%=%%%%=*###&&&++                    ",
"                      +#####@=%%=&&&*###&&&+                    ",
"                      +######@==&&&&&*###&&+                    ",
"                      +#####@===&&&&&&*#####+                   ",
"                       +-@#@#==%==&&&&=*#@##+                   ",
"                      +---@###%%%%%&&*=.+@@#+                   ",
"                     ++;--@##%%%%$%%*++  ++@#+                  ",
"                    +++;$@@#%%%%%%$=+      +#+                  ",
"                   +----$$@=%%%%%%%+        ++                  ",
"                  +-@@@-$&&=%%%%%%+                             ",
"                ++@@@@#--&&&%%%%%+                              ",
"               +-@@@####-@&&&=%%+                               ",
"             ++@@@@######@@&&&++                                ",
"          +++-@@@@########@@++                                  ",
"         +$$$@@@@########@@++                                   "};
