/* XPM */
static char * death_left_1_xpm[] = {
"64 32 13 1",
" 	c #000000",
".	c #141412",
"+	c #5F2E5C",
"@	c #932D8B",
"#	c #261A26",
"$	c #F09A53",
"%	c #804A1E",
"&	c #463D35",
"*	c #7C6C5E",
"=	c #47280D",
"-	c #CBC3BC",
";	c #FDFDFD",
">	c #432341",
"                                                                ",
"                                                                ",
"                                          ......                ",
"                                         .+@@@@@#               ",
"                                        .@@@@@@+#               ",
"                                       .@@@@@@+##               ",
"                                      .+++@@@@@+#               ",
"                                     .@@@@@@@@@@#               ",
"                                  ...$$$$$$$%%%%%#              ",
"                                ..@@$$$$$$$$%%%%%####           ",
"                               .@@@@@@@@@@+@+++++++++##         ",
"                               ...++@@@@@@+@+++++++++++#        ",
"                                  ..&&&&&&&&&@@@@@@#####        ",
"                                   .**%%%==&&*****#             ",
"                                    **$$$$$******#              ",
"                                    ..$$$$$%-;;;;.              ",
"                                     .$$$$$$-;;;;.              ",
"                                    .-;;;-$--;;;;.              ",
"                                    .;%%%;;--++@@@.             ",
"                                   ..;;;;;;--+@@@@@.            ",
"                                   ..;;;;;;@@+@@@@@.            ",
"                                   ..;;;;;;@@+@@@@@.            ",
"                                   ..;;;;;;@@++@@@.             ",
"                                    .;;;;;-@++>>..              ",
"                                    .-;;;-@++>>>.               ",
"                                    .@@@@$$$%%=.                ",
"                                    .$$$$$$$%%>.                ",
"                                    .%$$$%++>>>>.               ",
"                                    .>>>+++@@@+++.              ",
"                                    .+@@@@@@@@+++>..            ",
"                                    .@@@@@@@@@@++++>..          ",
"                                   $$$$@@@@@@@@++++++>>         "};
