/* XPM */
static char * death_right_5_xpm[] = {
"64 32 13 1",
" 	c #000000",
".	c #141412",
"+	c #261A26",
"@	c #932D8B",
"#	c #5F2E5C",
"$	c #804A1E",
"%	c #47280D",
"&	c #432341",
"*	c #F09A53",
"=	c #463D35",
"-	c #CBC3BC",
";	c #FDFDFD",
">	c #7C6C5E",
"                                                                ",
"                                                                ",
"                                                                ",
"                                                                ",
"                                                                ",
"                                                                ",
"                                                                ",
"                                                                ",
"                                                                ",
"                                                                ",
"                                                                ",
"                                                                ",
"                                                                ",
"                                                                ",
"                                                                ",
"                                                                ",
"                                        ...                     ",
"                                       +@@@.                    ",
"                                      +#@@@@.                   ",
"                                     +###@@@#.                  ",
"                             +++++  +#@@@@@@@.                  ",
"                            +#####++$$@@@@@@@.                  ",
"                             ++#####$$$$@@@@#@.                 ",
"                            %%&++#####$$$*@@##.                 ",
"                          ..$$#&#@######****@@.                 ",
"                       ...##$$#@@@==####@*****.                 ",
"                    ...#@@@&**@-;;;;==#@@@@****.                ",
"                 ...#@@@@@@&**@-;;;;;*==#@@@@**.                ",
"             ....#@@@@@@@@@#$$-;;;;;;-**==#@@@@@.               ",
"            ...#@@@@@@@@@@@&**;;;;;;$;***>==#@@@..              ",
"           $$$.@@@@@@@@@@#&&**;;;;;;$;***>>>==@@@@.             ",
"         $$$$..@@@@@@@#&&&&&**-;;;;;;-..>>>>  .....             "};
