/* XPM */
static char * player_left_xpm[] = {
"32 32 23 1",
" 	c #196F30",
".	c #337803",
"+	c #357B05",
"@	c #1A7231",
"#	c #1B7735",
"$	c #141412",
"%	c #176B2D",
"&	c #5F2E5C",
"*	c #932D8B",
"=	c #261A26",
"-	c #1E7F38",
";	c #317105",
">	c #337504",
",	c #1D7C37",
"'	c #306D05",
")	c #F09A53",
"!	c #804A1E",
"~	c #7C6C5E",
"{	c #47280D",
"]	c #463D35",
"^	c #CBC3BC",
"/	c #FDFDFD",
"(	c #432341",
" .+++@@@##@   $$$$$$+%%@@@@#####",
"....@@  ####+$&*****=%@@@@##----",
".......@##@;$******&=..@@##@@---",
"..>...@@@@@$******&==.%%@@@@@@-,",
".>>..;..;@$&&&*****&=+++>>@@@@@,",
">>>.>...;$**********=++>>''''@@#",
">>>>...;$)))))))!!!!!=>>''''%%@,",
">>>>>>$$))))))))!!!!!==.'''%%@##",
"++'>$$********&*&&&&&&&==>>>>@@@",
"+''$**********&*&&&&&&&&&==>  @@",
"%;>$$$$$~~!!!{{]]******&&&&=% ;;",
"%...'>>$~~)))))~~~~~~=======   ;",
"...''>>.$$)))))!^////$>.>....   ",
"..;;>>>;.$))))))^////$>;....''  ",
".;;>>>>>$^///^)^^////$>>>..''@..",
"%%++++;>$/!!!//^^/&***$>>>>>>...",
" .+++''$$//////^^&*****$>...>...",
"....;;>$$//////**&*****$''.....;",
".......$$//////**&*****$>''...;.",
"..>...;$$//////**&&***$;>>;;.%..",
".>>..;..$/////^*&&(($$...>>%%%% ",
">>>.>...$^///^*&&((($...>'''' @.",
">>>>...;$))))!)!!!{$...;''''%%@@",
">>>>>>..$))))!)!!!{$>>..'''%%@@@",
"++'>>..;$&&&(&(&(($$>..;'>>>>@@@",
"+''>>>>>$******&**$$..>>>>>>%%@@",
";;>>>>>$&******&**&($>>>>>>%%@;;",
";+++'>>$&*********&&$>>>.>  @@@;",
".++''>>$**********&&$ >@,>>>>@@@",
"..;;>>@$***********&($@@>>>>%%@@",
".;;>>@%$*******&***&&$@@>>>%%@##",
" %%> @$&*******&***&&((@>> '''##"};
