/* XPM */
static char * player_exit_right_2_xpm[] = {
"32 32 182 2",
"  	c #196F30",
". 	c #337803",
"+ 	c #357B05",
"@ 	c #1A7231",
"# 	c #1B7735",
"$ 	c #561300",
"% 	c #591900",
"& 	c #176B2D",
"* 	c #692E00",
"= 	c #672C00",
"- 	c #835A05",
"; 	c #845A08",
"> 	c #835407",
", 	c #581000",
"' 	c #815404",
") 	c #805305",
"! 	c #612600",
"~ 	c #602500",
"{ 	c #1E7F38",
"] 	c #632200",
"^ 	c #5E1B00",
"/ 	c #865D0F",
"( 	c #8A6013",
"_ 	c #8A6215",
": 	c #141412",
"< 	c #885F13",
"[ 	c #581700",
"} 	c #744300",
"| 	c #734400",
"1 	c #5C1F00",
"2 	c #337504",
"3 	c #7D5001",
"4 	c #5C1E00",
"5 	c #966C26",
"6 	c #956D26",
"7 	c #261A26",
"8 	c #932D8B",
"9 	c #5F2E5C",
"0 	c #591B00",
"a 	c #875E14",
"b 	c #875C13",
"c 	c #703E00",
"d 	c #6C3800",
"e 	c #5B1F00",
"f 	c #1D7C37",
"g 	c #91651F",
"h 	c #5E2000",
"i 	c #704000",
"j 	c #794C00",
"k 	c #7D5105",
"l 	c #744A00",
"m 	c #734900",
"n 	c #83570F",
"o 	c #6C3A00",
"p 	c #571900",
"q 	c #714300",
"r 	c #5F2100",
"s 	c #81560B",
"t 	c #784E00",
"u 	c #754800",
"v 	c #764800",
"w 	c #81540B",
"x 	c #581A00",
"y 	c #306D05",
"z 	c #82560E",
"A 	c #704400",
"B 	c #724400",
"C 	c #602800",
"D 	c #744700",
"E 	c #744900",
"F 	c #7E5309",
"G 	c #531300",
"H 	c #612400",
"I 	c #704200",
"J 	c #652E00",
"K 	c #7A4E00",
"L 	c #734800",
"M 	c #612500",
"N 	c #81550C",
"O 	c #663200",
"P 	c #804A1E",
"Q 	c #F09A53",
"R 	c #744600",
"S 	c #5A1800",
"T 	c #5C1900",
"U 	c #5E1C00",
"V 	c #5F1F00",
"W 	c #612100",
"X 	c #4F0900",
"Y 	c #317105",
"Z 	c #6B4402",
"` 	c #704B0B",
" .	c #724C0E",
"..	c #755214",
"+.	c #4F0600",
"@.	c #551100",
"#.	c #6C4203",
"$.	c #541000",
"%.	c #463D35",
"&.	c #47280D",
"*.	c #7C6C5E",
"=.	c #FDFDFD",
"-.	c #CBC3BC",
";.	c #6C3F00",
">.	c #4F0B00",
",.	c #316D05",
"'.	c #367B05",
").	c #500A00",
"!.	c #6D3F00",
"~.	c #653000",
"{.	c #714500",
"].	c #6B3E00",
"^.	c #6B3D00",
"/.	c #510700",
"(.	c #357404",
"_.	c #6C3E00",
":.	c #357703",
"<.	c #347803",
"[.	c #6F4200",
"}.	c #6A3C00",
"|.	c #693D00",
"1.	c #500800",
"2.	c #663400",
"3.	c #6A3900",
"4.	c #4F0400",
"5.	c #693900",
"6.	c #327105",
"7.	c #4D0600",
"8.	c #683700",
"9.	c #4C0700",
"0.	c #196B2D",
"a.	c #4E0300",
"b.	c #561200",
"c.	c #571300",
"d.	c #591800",
"e.	c #5B1B00",
"f.	c #581500",
"g.	c #551300",
"h.	c #4D0400",
"i.	c #683E01",
"j.	c #6B4607",
"k.	c #6C4708",
"l.	c #714C10",
"m.	c #724D11",
"n.	c #432341",
"o.	c #6B4508",
"p.	c #683E00",
"q.	c #4E0500",
"r.	c #724F13",
"s.	c #4E0200",
"t.	c #5F2700",
"u.	c #612B00",
"v.	c #561900",
"w.	c #643100",
"x.	c #622C00",
"y.	c #5F2200",
"z.	c #4C0200",
"A.	c #693700",
"B.	c #5B2300",
"C.	c #6A3B00",
"D.	c #6A3E00",
"E.	c #673400",
"F.	c #673200",
"G.	c #510F00",
"H.	c #5A1A00",
"I.	c #5A1C00",
"J.	c #581800",
"K.	c #521100",
"L.	c #714A0F",
"M.	c #724C13",
"N.	c #744D14",
"O.	c #755117",
"P.	c #704D14",
"Q.	c #633A02",
"R.	c #653905",
"S.	c #674006",
"T.	c #613700",
"U.	c #673E04",
"V.	c #623500",
"W.	c #613600",
"X.	c #643F03",
"Y.	c #4C0300",
"  . + + + @ @ @ # # @   $ $ $ $ % % % + + & & @ @ @ @ # # # # # ",
". . . . @ @     # $ * = - ; > , ' ) ) % ! ~ @ @ @ @ # # { { { { ",
". . . . . . . ] ^ / ( _ : : : : : : < [ } | 1 1 @ # # @ @ { { { ",
". . 2 . . . $ 3 4 5 6 7 8 8 8 8 8 9 : 0 a b c d e @ @ @ @ @ { f ",
". 2 2 . . ] g g h i j 7 9 8 8 8 8 8 8 : k l m n o p @ @ @ @ @ f ",
"2 2 2 . 2 $ q q r s t 7 7 9 8 8 8 8 8 8 : u m v w x y y y @ @ # ",
"2 2 2 2 $ z A B C j t 7 9 8 8 8 8 8 9 9 9 : D E m F G y & & @ f ",
"2 2 2 2 H z I q J j K 7 8 8 8 8 8 8 8 8 8 8 : m m L G & & @ # # ",
"+ + y 2 M N I A O j 7 P P P P P Q Q Q Q Q Q Q : L R G 2 2 @ @ @ ",
"+ y y 2 [ S T U V W 7 P P P P P Q Q Q Q Q Q Q Q : [ X 2     @ @ ",
"& Y 2 2 $ Z `  ...7 9 9 9 9 9 9 8 9 8 8 8 8 8 8 8 : +.& &   Y Y ",
"& . . . @.#.` 7 7 9 9 9 9 9 9 9 8 9 8 8 8 8 8 8 8 8 : :       Y ",
". . . y $.7 7 9 9 9 8 8 8 8 8 %.%.&.&.P P P *.*.8 8 8 8 :       ",
". . Y Y 7 9 9 9 8 8 9 *.*.*.*.*.*.Q Q Q Q Q *.*.: : : : : y     ",
". Y Y 2 7 7 7 7 7 7 : =.=.=.=.-.P Q Q Q Q Q : : : ;.>.,.y @ . . ",
"& & + '.).;.!.!.~.{.: =.=.=.=.-.Q Q Q Q Q Q : ].].^./.(.2 . . . ",
"  . + + )._.;.!.~.A : =.=.=.=.-.-.Q -.=.=.=.-.: ^.^.>.:.2 . . . ",
". . . <./._._.!.~.[.: =.=.=.=.-.-.=.=.P P P =.: }.|.1.<.. . . Y ",
". . . . +.]._._.2.: 8 8 8 9 =.-.-.=.=.=.=.=.=.: : 3.+.<.. . Y . ",
". . 2 . 4.^.]._.: 8 8 8 8 8 9 8 8 =.=.=.=.=.=.: : 5.4.6.. & . . ",
". 2 2 . 7.^.^.^.: 8 8 8 8 8 9 8 8 =.=.=.=.=.=.: : 8.9.0.& & &   ",
"2 2 2 . a.b.c.d.e.: 8 8 8 9 9 9 8 =.=.=.=.=.=.: f.g.h.y y   @ . ",
"2 2 2 2 h.i.j.k.l.m.: : n.n.n.9 9 -.=.=.=.=.=.: o.p.h.y & & @ @ ",
"2 2 2 2 h.q.q.4.4.4.r.: : &.P P P Q -.=.=.=.-.: q.s.h.& & @ @ @ ",
"+ + y 2 h.h t.u.v.w.4.x.: &.P P P Q P Q Q Q Q : t.y.z.2 2 @ @ @ ",
"+ y y 2 h.5.A.5.B.C.C.D.: : n.n.9 n.9 n.9 9 9 : E.F.z.2 & & @ @ ",
"Y Y 2 2 h.G.p H.I.x p J.: : 8 8 9 8 8 8 8 8 8 : K.z.z.& & @ Y Y ",
"Y + + + h. .L.M.N.r.O.: n.9 8 8 9 8 8 8 8 8 8 9 : P.z.  @ @ @ Y ",
". + + y h.Q.Q.R.R.R.S.: 9 9 8 8 8 8 8 8 8 8 8 9 : T.z.2 2 @ @ @ ",
". . Y Y h.Q.Q.Q.Q.U.: n.9 8 8 8 8 8 8 8 8 8 8 8 : V.z.2 & & @ @ ",
". Y Y 2 h.W.W.X.X.X.: 9 9 8 8 8 9 8 8 8 8 8 8 8 : V.Y.& & @ # # ",
"  & & 2 h.h.h.h.h.n.n.9 9 8 8 8 9 8 8 8 8 8 8 8 9 : h.y y y # # "};
