/* XPM */
static char * player_exit_left_2_xpm[] = {
"32 32 178 2",
"  	c #196F30",
". 	c #337803",
"+ 	c #357B05",
"@ 	c #1A7231",
"# 	c #1B7735",
"$ 	c #561300",
"% 	c #591900",
"& 	c #176B2D",
"* 	c #692E00",
"= 	c #672C00",
"- 	c #835A05",
"; 	c #845A08",
"> 	c #835407",
", 	c #581000",
"' 	c #815404",
") 	c #805305",
"! 	c #612600",
"~ 	c #602500",
"{ 	c #1E7F38",
"] 	c #632200",
"^ 	c #5E1B00",
"/ 	c #865D0F",
"( 	c #8A6013",
"_ 	c #8A6215",
": 	c #936A22",
"< 	c #946B23",
"[ 	c #141412",
"} 	c #744300",
"| 	c #734400",
"1 	c #5C1F00",
"2 	c #337504",
"3 	c #7D5001",
"4 	c #5C1E00",
"5 	c #966C26",
"6 	c #956D26",
"7 	c #956E25",
"8 	c #714200",
"9 	c #5F2E5C",
"0 	c #932D8B",
"a 	c #261A26",
"b 	c #875C13",
"c 	c #703E00",
"d 	c #6C3800",
"e 	c #5B1F00",
"f 	c #1D7C37",
"g 	c #91651F",
"h 	c #5E2000",
"i 	c #704000",
"j 	c #794C00",
"k 	c #794B00",
"l 	c #744A00",
"m 	c #734900",
"n 	c #83570F",
"o 	c #6C3A00",
"p 	c #571900",
"q 	c #714300",
"r 	c #5F2100",
"s 	c #81560B",
"t 	c #784E00",
"u 	c #754800",
"v 	c #764800",
"w 	c #81540B",
"x 	c #581A00",
"y 	c #306D05",
"z 	c #82560E",
"A 	c #704400",
"B 	c #724400",
"C 	c #602800",
"D 	c #744700",
"E 	c #744900",
"F 	c #7E5309",
"G 	c #531300",
"H 	c #612400",
"I 	c #704200",
"J 	c #652E00",
"K 	c #734800",
"L 	c #612500",
"M 	c #81550C",
"N 	c #F09A53",
"O 	c #804A1E",
"P 	c #744600",
"Q 	c #581700",
"R 	c #5A1800",
"S 	c #5C1900",
"T 	c #5F1D00",
"U 	c #5C1C00",
"V 	c #5C1800",
"W 	c #4F0900",
"X 	c #317105",
"Y 	c #6B4402",
"Z 	c #6F490B",
"` 	c #6B4203",
" .	c #4F0600",
"..	c #6C4104",
"+.	c #500800",
"@.	c #186B2D",
"#.	c #7C6C5E",
"$.	c #47280D",
"%.	c #463D35",
"&.	c #347803",
"*.	c #520D00",
"=.	c #6D3F00",
"-.	c #CBC3BC",
";.	c #FDFDFD",
">.	c #367B05",
",.	c #500A00",
"'.	c #6C3F00",
").	c #653000",
"!.	c #704600",
"~.	c #6B3E00",
"{.	c #6B3D00",
"].	c #510700",
"^.	c #357404",
"/.	c #6C3E00",
"(.	c #4F0B00",
"_.	c #357703",
":.	c #714400",
"<.	c #6A3C00",
"[.	c #693D00",
"}.	c #693B00",
"|.	c #6B3800",
"1.	c #6A3900",
"2.	c #4F0400",
"3.	c #693900",
"4.	c #327105",
"5.	c #4D0600",
"6.	c #683800",
"7.	c #683700",
"8.	c #4C0700",
"9.	c #196B2D",
"0.	c #4E0300",
"a.	c #561200",
"b.	c #571300",
"c.	c #591800",
"d.	c #581600",
"e.	c #581500",
"f.	c #551300",
"g.	c #4D0400",
"h.	c #683E01",
"i.	c #6B4607",
"j.	c #6C4708",
"k.	c #432341",
"l.	c #6B4508",
"m.	c #683E00",
"n.	c #4E0500",
"o.	c #4E0200",
"p.	c #5F2700",
"q.	c #612B00",
"r.	c #602A00",
"s.	c #5F2200",
"t.	c #4C0200",
"u.	c #693700",
"v.	c #6F4300",
"w.	c #673400",
"x.	c #673200",
"y.	c #510F00",
"z.	c #5A1A00",
"A.	c #571700",
"B.	c #571500",
"C.	c #561600",
"D.	c #531000",
"E.	c #521100",
"F.	c #724C0E",
"G.	c #714A0F",
"H.	c #744E16",
"I.	c #714D16",
"J.	c #704D14",
"K.	c #704C15",
"L.	c #633A02",
"M.	c #674007",
"N.	c #663D05",
"O.	c #633600",
"P.	c #633701",
"Q.	c #613700",
"R.	c #623500",
"S.	c #613600",
"T.	c #663D03",
"U.	c #4C0300",
"  . + + + @ @ @ # # @   $ $ $ $ % % % + + & & @ @ @ @ # # # # # ",
". . . . @ @     # $ * = - ; > , ' ) ) % ! ~ @ @ @ @ # # { { { { ",
". . . . . . . ] ^ / ( _ : < [ [ [ [ [ [ } | 1 1 @ # # @ @ { { { ",
". . 2 . . . $ 3 4 5 6 7 8 [ 9 0 0 0 0 0 a b c d e @ @ @ @ @ { f ",
". 2 2 . . ] g g h i j k [ 0 0 0 0 0 0 9 a l m n o p @ @ @ @ @ f ",
"2 2 2 . 2 $ q q r s t [ 0 0 0 0 0 0 9 a a u m v w x y y y @ @ # ",
"2 2 2 2 $ z A B C j [ 9 9 9 0 0 0 0 0 9 a u D E m F G y & & @ f ",
"2 2 2 2 H z I q J [ 0 0 0 0 0 0 0 0 0 0 a l m m m K G & & @ # # ",
"+ + y 2 L M I A [ N N N N N N N O O O O O a m m K P G 2 2 @ @ @ ",
"+ y y 2 Q R S [ N N N N N N N N O O O O O a T U V Q W 2     @ @ ",
"& X 2 2 $ Y [ 0 0 0 0 0 0 0 9 0 9 9 9 9 9 9 a Z Z `  .& &   X X ",
"& . . . [ [ 0 0 0 0 0 0 0 0 9 0 9 9 9 9 9 9 9 a a ..+.@.      X ",
". . . [ 0 0 0 0 #.#.O O O $.$.%.%.0 0 0 0 0 9 9 9 a a &..       ",
". . X [ [ [ [ [ #.#.N N N N N #.#.#.#.#.#.9 0 0 9 9 9 a y y     ",
". X X 2 *.=.=.[ [ [ N N N N N O -.;.;.;.;.[ a a a a a a y @ . . ",
"& & + >.,.'.=.=.).[ N N N N N N -.;.;.;.;.[ !.~.~.{.].^.2 . . . ",
"  . + + ,./.'.=.[ -.;.;.;.-.N -.-.;.;.;.;.[ !.{.{.{.(._.2 . . . ",
". . . &.]././.=.[ ;.O O O ;.;.-.-.;.;.;.;.[ :.<.<.[.+.&.. . . X ",
". . . .  .~./.[ [ ;.;.;.;.;.;.-.-.;.9 0 0 0 [ }.|.1. .&.. . X . ",
". . 2 . 2.{.~.[ [ ;.;.;.;.;.;.0 0 9 0 0 0 0 0 [ 3.3.2.4.. & . . ",
". 2 2 . 5.{.{.[ [ ;.;.;.;.;.;.0 0 9 0 0 0 0 0 [ 6.7.8.9.& & &   ",
"2 2 2 . 0.a.b.c.[ ;.;.;.;.;.;.0 9 9 9 0 0 0 [ d.e.f.g.y y   @ . ",
"2 2 2 2 g.h.i.j.[ ;.;.;.;.;.-.9 9 k.k.k.[ [ l.l.l.m.g.y & & @ @ ",
"2 2 2 2 g.n.n.2.[ -.;.;.;.-.N O O O $.[ [ n.n.n.n.o.g.& & @ @ @ ",
"+ + y 2 g.h p.q.[ N N N N O N O O O $.[ n.q.q.r.p.s.t.2 2 @ @ @ ",
"+ y y 2 g.3.u.3.[ 9 9 9 k.9 k.9 k.k.[ [ I I v.w.w.x.t.2 & & @ @ ",
"X X 2 2 g.y.p z.[ 0 0 0 0 0 0 9 0 0 [ [ A.B.C.D.E.t.t.& & @ X X ",
"X + + + g.F.G.[ 9 0 0 0 0 0 0 9 0 0 9 k.[ H.I.J.K.J.t.  @ @ @ X ",
". + + y g.L.L.[ 9 0 0 0 0 0 0 0 0 0 9 9 [ M.N.O.P.Q.t.2 2 @ @ @ ",
". . X X g.L.L.[ 0 0 0 0 0 0 0 0 0 0 0 9 k.[ N.O.O.R.t.2 & & @ @ ",
". X X 2 g.S.S.[ 0 0 0 0 0 0 0 9 0 0 0 9 9 [ N.T.T.R.U.& & @ # # ",
"  & & 2 g.g.[ 9 0 0 0 0 0 0 0 9 0 0 0 9 9 k.k.g.g.g.g.y y y # # "};
