/* XPM */
static char * player_right_3_xpm[] = {
"32 32 23 1",
" 	c #196F30",
".	c #337803",
"+	c #357B05",
"@	c #1A7231",
"#	c #1B7735",
"$	c #176B2D",
"%	c #141412",
"&	c #1E7F38",
"*	c #261A26",
"=	c #932D8B",
"-	c #5F2E5C",
";	c #337504",
">	c #1D7C37",
",	c #317105",
"'	c #306D05",
")	c #804A1E",
"!	c #F09A53",
"~	c #463D35",
"{	c #47280D",
"]	c #7C6C5E",
"^	c #FDFDFD",
"/	c #CBC3BC",
"(	c #432341",
" .+++@@@##@   @@ .+++$$@@@@#####",
"....@@  ####%%%%%%..$$@@@@##&&&&",
".......@##@*=====-%....@@##@@&&&",
"..;...@@@@@*-======%..$$@@@@@@&>",
".;;..,..,@@**-======%+++;;@@@@@>",
";;;.;...,;;*-=====---%+;;''''@@#",
";;;;...,;;;*==========%;''''$$@>",
";;;;;;..;;*)))))!!!!!!!%'''$$@##",
"++';;..,,**)))))!!!!!!!!%%;;;@@@",
"+'';;;;**-------=-========%%  @@",
"$,;;;**---------=-==========% ,,",
"$...*----======~~{{)))]]%%%%%  ,",
"...'*******]]]]]]!!!!!]]%....   ",
"..,,;;;,..%^^^^/)!!!!!%%....''  ",
".,,;;;;;,.%^^^^/!!!!!!%;;..''@..",
"$$++++,;;;%^^^^//!/^^^/%;;;;;...",
" .+++'';;%===-^//^^)))^%;...;...",
"....,,;;%=====-//^^^^^^%%'.....,",
".......,%=====-==^^^^^^%%''...,.",
"..;...,,%=====-==^^^^^^%%;,,.$..",
".;;..,...%===--==^^^^^^%%;;$$$$ ",
";;;.;...,,%%((--=/^^^^^%;'''' @.",
";;;;...,,;;%(((--=/^^^/%''''$$@@",
";;;;;;..;;;;%{)))!)!!!!%'''$$@@@",
"++';;..,,;;,%{)))!)!!!!%';;;;@@@",
"+'';;;;;....%%((-(-(---%;;;;$$@@",
",,;;;;;;,...%%==-======%;;;$$@,,",
",+++';;;,,.%(-==-======-%;  @@@,",
".++'';;...;%--==========%;;;;@@@",
"..,,;;@,..%(-===========%;;;$$@@",
".,,;;@$$@.%--===-=======%;;$$@##",
" $$; @##@((--===-=======-% '''##"};
