/* XPM */
static char * player_exit_left_3_xpm[] = {
"32 32 166 2",
"  	c #196F30",
". 	c #337803",
"+ 	c #357B05",
"@ 	c #1A7231",
"# 	c #1B7735",
"$ 	c #561300",
"% 	c #591900",
"& 	c #176B2D",
"* 	c #692E00",
"= 	c #672C00",
"- 	c #835A05",
"; 	c #845A08",
"> 	c #141412",
", 	c #612600",
"' 	c #602500",
") 	c #1E7F38",
"! 	c #632200",
"~ 	c #5E1B00",
"{ 	c #865D0F",
"] 	c #8A6013",
"^ 	c #8A6215",
"/ 	c #936A22",
"( 	c #5F2E5C",
"_ 	c #932D8B",
": 	c #261A26",
"< 	c #734400",
"[ 	c #5C1F00",
"} 	c #337504",
"| 	c #7D5001",
"1 	c #5C1E00",
"2 	c #966C26",
"3 	c #956D26",
"4 	c #956E25",
"5 	c #875C13",
"6 	c #703E00",
"7 	c #6C3800",
"8 	c #5B1F00",
"9 	c #1D7C37",
"0 	c #91651F",
"a 	c #5E2000",
"b 	c #704000",
"c 	c #794C00",
"d 	c #744A00",
"e 	c #734900",
"f 	c #83570F",
"g 	c #6C3A00",
"h 	c #571900",
"i 	c #714300",
"j 	c #5F2100",
"k 	c #81560B",
"l 	c #754800",
"m 	c #764800",
"n 	c #81540B",
"o 	c #581A00",
"p 	c #306D05",
"q 	c #82560E",
"r 	c #704400",
"s 	c #724400",
"t 	c #602800",
"u 	c #744700",
"v 	c #744900",
"w 	c #7E5309",
"x 	c #531300",
"y 	c #612400",
"z 	c #704200",
"A 	c #F09A53",
"B 	c #804A1E",
"C 	c #734800",
"D 	c #612500",
"E 	c #81550C",
"F 	c #744600",
"G 	c #581700",
"H 	c #4F0900",
"I 	c #317105",
"J 	c #7C6C5E",
"K 	c #47280D",
"L 	c #463D35",
"M 	c #541000",
"N 	c #612700",
"O 	c #520D00",
"P 	c #6D4000",
"Q 	c #6E4000",
"R 	c #CBC3BC",
"S 	c #FDFDFD",
"T 	c #6C4200",
"U 	c #6C3F00",
"V 	c #347803",
"W 	c #6D3F00",
"X 	c #643100",
"Y 	c #724800",
"Z 	c #4F0B00",
"` 	c #316D05",
" .	c #367B05",
"..	c #500A00",
"+.	c #704600",
"@.	c #6B3E00",
"#.	c #6B3D00",
"$.	c #510700",
"%.	c #357404",
"&.	c #6C3E00",
"*.	c #357703",
"=.	c #6A3C00",
"-.	c #693D00",
";.	c #500800",
">.	c #4F0600",
",.	c #6B3800",
"'.	c #6A3900",
").	c #4F0400",
"!.	c #693900",
"~.	c #327105",
"{.	c #4D0600",
"].	c #683800",
"^.	c #683700",
"/.	c #4C0700",
"(.	c #196B2D",
"_.	c #4E0300",
":.	c #561200",
"<.	c #571300",
"[.	c #591800",
"}.	c #432341",
"|.	c #5B1800",
"1.	c #581600",
"2.	c #581500",
"3.	c #551300",
"4.	c #4D0400",
"5.	c #683E01",
"6.	c #6B4607",
"7.	c #6C4708",
"8.	c #704D0F",
"9.	c #6B4508",
"0.	c #683E00",
"a.	c #4E0500",
"b.	c #6A4709",
"c.	c #4E0200",
"d.	c #5F2700",
"e.	c #612B00",
"f.	c #602A00",
"g.	c #5F2200",
"h.	c #4C0200",
"i.	c #693700",
"j.	c #6F4300",
"k.	c #673400",
"l.	c #673200",
"m.	c #510F00",
"n.	c #5A1A00",
"o.	c #571700",
"p.	c #571500",
"q.	c #561600",
"r.	c #531000",
"s.	c #521100",
"t.	c #724C0E",
"u.	c #714A0F",
"v.	c #744E16",
"w.	c #714D16",
"x.	c #704D14",
"y.	c #704C15",
"z.	c #633A02",
"A.	c #674007",
"B.	c #663D05",
"C.	c #633600",
"D.	c #633701",
"E.	c #613700",
"F.	c #623500",
"G.	c #613600",
"H.	c #663D03",
"I.	c #4C0300",
"  . + + + @ @ @ # # @   $ $ $ $ % % % + + & & @ @ @ @ # # # # # ",
". . . . @ @     # $ * = - ; > > > > > > , ' @ @ @ @ # # ) ) ) ) ",
". . . . . . . ! ~ { ] ^ / > ( _ _ _ _ _ : < [ [ @ # # @ @ ) ) ) ",
". . } . . . $ | 1 2 3 4 > _ _ _ _ _ _ ( : 5 6 7 8 @ @ @ @ @ ) 9 ",
". } } . . ! 0 0 a b c > _ _ _ _ _ _ ( : : d e f g h @ @ @ @ @ 9 ",
"} } } . } $ i i j k > ( ( ( _ _ _ _ _ ( : l e m n o p p p @ @ # ",
"} } } } $ q r s t > _ _ _ _ _ _ _ _ _ _ : l u v e w x p & & @ 9 ",
"} } } } y q z i > A A A A A A A B B B B B : e e e C x & & @ # # ",
"+ + p } D E > > A A A A A A A A B B B B B : : e C F x } } @ @ @ ",
"+ p p } > > _ _ _ _ _ _ _ _ ( _ ( ( ( ( ( ( ( : : G H }     @ @ ",
"& I } > _ _ _ _ _ _ _ _ _ _ ( _ ( ( ( ( ( ( ( ( ( : : & &   I I ",
"& . . > > > > > J J B B B K K L L _ _ _ _ _ _ ( ( ( ( :       I ",
". . . p M N N > J J A A A A A J J J J J J : : : : : : : .       ",
". . I I O P Q Q > > A A A A A B R S S S S > C T Q U H V p p     ",
". I I } O W W Q X > A A A A A A R S S S S > Y W W U Z ` p @ . . ",
"& & +  ...U W W > R S S S R A R R S S S S > +.@.@.#.$.%.} . . . ",
"  . + + ..&.U W > S B B B S S R R S ( _ _ _ > #.#.#.Z *.} . . . ",
". . . V $.&.&.> > S S S S S S R R ( _ _ _ _ _ > =.-.;.V . . . I ",
". . . . >.@.&.> > S S S S S S _ _ ( _ _ _ _ _ > ,.'.>.V . . I . ",
". . } . ).#.@.> > S S S S S S _ _ ( _ _ _ _ _ > !.!.).~.. & . . ",
". } } . {.#.#.> > S S S S S S _ _ ( ( _ _ _ > !.].^./.(.& & &   ",
"} } } . _.:.<.[.> S S S S S R _ ( ( }.}.> > |.1.2.3.4.p p   @ . ",
"} } } } 4.5.6.7.> R S S S R _ ( ( }.}.}.> 8.9.9.9.0.4.p & & @ @ ",
"} } } } 4.a.a.).> A A A A B A B B B K > b.a.a.a.a.c.4.& & @ @ @ ",
"+ + p } 4.a d.e.> A A A A B A B B B K > a.e.e.f.d.g.h.} } @ @ @ ",
"+ p p } 4.!.i.!.> ( ( ( }.( }.( }.}.> > z z j.k.k.l.h.} & & @ @ ",
"I I } } 4.m.h n.> _ _ _ _ _ _ ( _ _ > > o.p.q.r.s.h.h.& & @ I I ",
"I + + + 4.t.u.> ( _ _ _ _ _ _ ( _ _ ( }.> v.w.x.y.x.h.  @ @ @ I ",
". + + p 4.z.z.> _ _ _ _ _ _ _ _ _ _ ( ( > A.B.C.D.E.h.} } @ @ @ ",
". . I I 4.z.z.> _ _ _ _ _ _ _ _ _ _ _ ( }.> B.C.C.F.h.} & & @ @ ",
". I I } 4.G.G.> _ _ _ _ _ _ _ ( _ _ _ ( ( > B.H.H.F.I.& & @ # # ",
"  & & } 4.4.> ( _ _ _ _ _ _ _ ( _ _ _ ( ( }.}.4.4.4.4.p p p # # "};
