/* XPM */
static char * player_exit_right_3_xpm[] = {
"32 32 166 2",
"  	c #196F30",
". 	c #337803",
"+ 	c #357B05",
"@ 	c #1A7231",
"# 	c #1B7735",
"$ 	c #561300",
"% 	c #591900",
"& 	c #176B2D",
"* 	c #692E00",
"= 	c #672C00",
"- 	c #141412",
"; 	c #805305",
"> 	c #612600",
", 	c #602500",
"' 	c #1E7F38",
") 	c #632200",
"! 	c #5E1B00",
"~ 	c #865D0F",
"{ 	c #8A6013",
"] 	c #261A26",
"^ 	c #932D8B",
"/ 	c #5F2E5C",
"( 	c #581700",
"_ 	c #744300",
": 	c #734400",
"< 	c #5C1F00",
"[ 	c #337504",
"} 	c #7D5001",
"| 	c #5C1E00",
"1 	c #966C26",
"2 	c #956D26",
"3 	c #875E14",
"4 	c #875C13",
"5 	c #703E00",
"6 	c #6C3800",
"7 	c #5B1F00",
"8 	c #1D7C37",
"9 	c #91651F",
"0 	c #5E2000",
"a 	c #704000",
"b 	c #794C00",
"c 	c #744A00",
"d 	c #734900",
"e 	c #83570F",
"f 	c #6C3A00",
"g 	c #571900",
"h 	c #714300",
"i 	c #5F2100",
"j 	c #81560B",
"k 	c #784E00",
"l 	c #764800",
"m 	c #81540B",
"n 	c #581A00",
"o 	c #306D05",
"p 	c #82560E",
"q 	c #704400",
"r 	c #724400",
"s 	c #602800",
"t 	c #744900",
"u 	c #7E5309",
"v 	c #531300",
"w 	c #612400",
"x 	c #704200",
"y 	c #652E00",
"z 	c #804A1E",
"A 	c #F09A53",
"B 	c #734800",
"C 	c #612500",
"D 	c #81550C",
"E 	c #663200",
"F 	c #5A1800",
"G 	c #5C1900",
"H 	c #317105",
"I 	c #463D35",
"J 	c #47280D",
"K 	c #7C6C5E",
"L 	c #622F00",
"M 	c #4F0900",
"N 	c #347803",
"O 	c #520D00",
"P 	c #6D4000",
"Q 	c #6E4000",
"R 	c #5B1E00",
"S 	c #FDFDFD",
"T 	c #CBC3BC",
"U 	c #6C3F00",
"V 	c #6D3F00",
"W 	c #643100",
"X 	c #724500",
"Y 	c #4F0B00",
"Z 	c #316D05",
"` 	c #367B05",
" .	c #500A00",
"..	c #653000",
"+.	c #714500",
"@.	c #6B3E00",
"#.	c #6B3D00",
"$.	c #510700",
"%.	c #357404",
"&.	c #6C3E00",
"*.	c #357703",
"=.	c #693D00",
"-.	c #500800",
";.	c #4F0600",
">.	c #6A3900",
",.	c #4F0400",
"'.	c #693900",
").	c #327105",
"!.	c #4D0600",
"~.	c #653300",
"{.	c #683700",
"].	c #4C0700",
"^.	c #196B2D",
"/.	c #4E0300",
"(.	c #561200",
"_.	c #571300",
":.	c #591800",
"<.	c #5B1B00",
"[.	c #5C1C00",
"}.	c #432341",
"|.	c #581500",
"1.	c #551300",
"2.	c #4D0400",
"3.	c #683E01",
"4.	c #6B4607",
"5.	c #6C4708",
"6.	c #714C10",
"7.	c #724D11",
"8.	c #735012",
"9.	c #6B4508",
"0.	c #683E00",
"a.	c #4E0500",
"b.	c #724F13",
"c.	c #4E0200",
"d.	c #5F2700",
"e.	c #612B00",
"f.	c #561900",
"g.	c #622C00",
"h.	c #5F2200",
"i.	c #4C0200",
"j.	c #693700",
"k.	c #5B2300",
"l.	c #6A3B00",
"m.	c #6A3E00",
"n.	c #673400",
"o.	c #673200",
"p.	c #510F00",
"q.	c #5A1A00",
"r.	c #5A1C00",
"s.	c #581800",
"t.	c #521100",
"u.	c #724C0E",
"v.	c #714A0F",
"w.	c #724C13",
"x.	c #744D14",
"y.	c #755117",
"z.	c #704D14",
"A.	c #633A02",
"B.	c #653905",
"C.	c #674006",
"D.	c #613700",
"E.	c #673E04",
"F.	c #623500",
"G.	c #613600",
"H.	c #643F03",
"I.	c #4C0300",
"  . + + + @ @ @ # # @   $ $ $ $ % % % + + & & @ @ @ @ # # # # # ",
". . . . @ @     # $ * = - - - - - - ; % > , @ @ @ @ # # ' ' ' ' ",
". . . . . . . ) ! ~ { ] ^ ^ ^ ^ ^ / - ( _ : < < @ # # @ @ ' ' ' ",
". . [ . . . $ } | 1 2 ] / ^ ^ ^ ^ ^ ^ - 3 4 5 6 7 @ @ @ @ @ ' 8 ",
". [ [ . . ) 9 9 0 a b ] ] / ^ ^ ^ ^ ^ ^ - c d e f g @ @ @ @ @ 8 ",
"[ [ [ . [ $ h h i j k ] / ^ ^ ^ ^ ^ / / / - d l m n o o o @ @ # ",
"[ [ [ [ $ p q r s b k ] ^ ^ ^ ^ ^ ^ ^ ^ ^ ^ - t d u v o & & @ 8 ",
"[ [ [ [ w p x h y b ] z z z z z A A A A A A A - d B v & & @ # # ",
"+ + o [ C D x q E ] ] z z z z z A A A A A A A A - - v [ [ @ @ @ ",
"+ o o [ ( F G ] ] / / / / / / / ^ / ^ ^ ^ ^ ^ ^ ^ ^ - -     @ @ ",
"& H [ [ $ ] ] / / / / / / / / / ^ / ^ ^ ^ ^ ^ ^ ^ ^ ^ ^ -   H H ",
"& . . . ] / / / / ^ ^ ^ ^ ^ ^ I I J J z z z K K - - - - -     H ",
". . . o ] ] ] ] ] ] ] K K K K K K A A A A A K K - L M N .       ",
". . H H O P Q Q R d - S S S S T z A A A A A - - Q U M N o o     ",
". H H [ O V V Q W X - S S S S T A A A A A A - V V U Y Z o @ . . ",
"& & + `  .U V V ..+.- S S S S T T A T S S S T - @.#.$.%.[ . . . ",
"  . + +  .&.U V ..- ^ ^ ^ / S T T S S z z z S - #.#.Y *.[ . . . ",
". . . N $.&.&.V - ^ ^ ^ ^ ^ / T T S S S S S S - - =.-.N . . . H ",
". . . . ;.@.&.&.- ^ ^ ^ ^ ^ / ^ ^ S S S S S S - - >.;.N . . H . ",
". . [ . ,.#.@.&.- ^ ^ ^ ^ ^ / ^ ^ S S S S S S - - '.,.).. & . . ",
". [ [ . !.#.#.#.~.- ^ ^ ^ / / ^ ^ S S S S S S - - {.].^.& & &   ",
"[ [ [ . /.(._.:.<.[.- - }.}./ / ^ T S S S S S - |.1.2.o o   @ . ",
"[ [ [ [ 2.3.4.5.6.7.8.- }.}.}./ / ^ T S S S T - 9.0.2.o & & @ @ ",
"[ [ [ [ 2.a.a.,.,.,.b.,.- J z z z A z A A A A - a.c.2.& & @ @ @ ",
"+ + o [ 2.0 d.e.f.W ,.g.- J z z z A z A A A A - d.h.i.[ [ @ @ @ ",
"+ o o [ 2.'.j.'.k.l.l.m.- - }.}./ }./ }./ / / - n.o.i.[ & & @ @ ",
"H H [ [ 2.p.g q.r.n g s.- - ^ ^ / ^ ^ ^ ^ ^ ^ - t.i.i.& & @ H H ",
"H + + + 2.u.v.w.x.b.y.- }./ ^ ^ / ^ ^ ^ ^ ^ ^ / - z.i.  @ @ @ H ",
". + + o 2.A.A.B.B.B.C.- / / ^ ^ ^ ^ ^ ^ ^ ^ ^ ^ - D.i.[ [ @ @ @ ",
". . H H 2.A.A.A.A.E.- }./ ^ ^ ^ ^ ^ ^ ^ ^ ^ ^ ^ - F.i.[ & & @ @ ",
". H H [ 2.G.G.H.H.H.- / / ^ ^ ^ / ^ ^ ^ ^ ^ ^ ^ - F.I.& & @ # # ",
"  & & [ 2.2.2.2.2.}.}./ / ^ ^ ^ / ^ ^ ^ ^ ^ ^ ^ / - 2.o o o # # "};
