/* XPM */
static char * player_exit_right_0_xpm[] = {
"32 32 166 2",
"  	c #196F30",
". 	c #337803",
"+ 	c #357B05",
"@ 	c #1A7231",
"# 	c #1B7735",
"$ 	c #141412",
"% 	c #591900",
"& 	c #176B2D",
"* 	c #561300",
"= 	c #692E00",
"- 	c #261A26",
"; 	c #932D8B",
"> 	c #5F2E5C",
", 	c #612600",
"' 	c #602500",
") 	c #1E7F38",
"! 	c #632200",
"~ 	c #5E1B00",
"{ 	c #865D0F",
"] 	c #8A6013",
"^ 	c #744300",
"/ 	c #734400",
"( 	c #5C1F00",
"_ 	c #337504",
": 	c #7D5001",
"< 	c #5C1E00",
"[ 	c #966C26",
"} 	c #956D26",
"| 	c #875C13",
"1 	c #703E00",
"2 	c #6C3800",
"3 	c #5B1F00",
"4 	c #1D7C37",
"5 	c #91651F",
"6 	c #5E2000",
"7 	c #704000",
"8 	c #794C00",
"9 	c #734900",
"0 	c #83570F",
"a 	c #6C3A00",
"b 	c #571900",
"c 	c #714300",
"d 	c #5F2100",
"e 	c #81560B",
"f 	c #784E00",
"g 	c #764800",
"h 	c #81540B",
"i 	c #581A00",
"j 	c #306D05",
"k 	c #82560E",
"l 	c #704400",
"m 	c #724400",
"n 	c #602800",
"o 	c #804A1E",
"p 	c #F09A53",
"q 	c #7E5309",
"r 	c #531300",
"s 	c #612400",
"t 	c #704200",
"u 	c #652E00",
"v 	c #612500",
"w 	c #81550C",
"x 	c #581700",
"y 	c #317105",
"z 	c #463D35",
"A 	c #47280D",
"B 	c #7C6C5E",
"C 	c #6C4104",
"D 	c #500800",
"E 	c #186B2D",
"F 	c #541000",
"G 	c #612700",
"H 	c #5A1D00",
"I 	c #663100",
"J 	c #FDFDFD",
"K 	c #CBC3BC",
"L 	c #633000",
"M 	c #622F00",
"N 	c #4F0900",
"O 	c #347803",
"P 	c #520D00",
"Q 	c #6D4000",
"R 	c #6E4000",
"S 	c #5B1E00",
"T 	c #6C4200",
"U 	c #6C3F00",
"V 	c #6D3F00",
"W 	c #643100",
"X 	c #724500",
"Y 	c #4F0B00",
"Z 	c #316D05",
"` 	c #367B05",
" .	c #500A00",
"..	c #653000",
"+.	c #6B3E00",
"@.	c #6B3D00",
"#.	c #510700",
"$.	c #357404",
"%.	c #6C3E00",
"&.	c #357703",
"*.	c #693D00",
"=.	c #4F0600",
"-.	c #6A3900",
";.	c #4F0400",
">.	c #663300",
",.	c #693900",
"'.	c #327105",
").	c #4D0600",
"!.	c #653300",
"~.	c #693F00",
"{.	c #432341",
"].	c #683800",
"^.	c #683700",
"/.	c #4C0700",
"(.	c #196B2D",
"_.	c #4E0300",
":.	c #561200",
"<.	c #571300",
"[.	c #591800",
"}.	c #5B1B00",
"|.	c #5C1C00",
"1.	c #8A692F",
"2.	c #581500",
"3.	c #551300",
"4.	c #4D0400",
"5.	c #683E01",
"6.	c #6B4607",
"7.	c #6C4708",
"8.	c #714C10",
"9.	c #724D11",
"0.	c #735012",
"a.	c #6B4508",
"b.	c #683E00",
"c.	c #4E0500",
"d.	c #724F13",
"e.	c #4E0200",
"f.	c #5F2700",
"g.	c #612B00",
"h.	c #561900",
"i.	c #622C00",
"j.	c #5F2200",
"k.	c #4C0200",
"l.	c #693700",
"m.	c #5B2300",
"n.	c #6A3B00",
"o.	c #6A3E00",
"p.	c #673400",
"q.	c #673200",
"r.	c #510F00",
"s.	c #5A1A00",
"t.	c #5A1C00",
"u.	c #724C0E",
"v.	c #714A0F",
"w.	c #724C13",
"x.	c #744D14",
"y.	c #755117",
"z.	c #704D14",
"A.	c #633A02",
"B.	c #653905",
"C.	c #674006",
"D.	c #613700",
"E.	c #673E04",
"F.	c #623500",
"G.	c #613600",
"H.	c #643F03",
"I.	c #4C0300",
"  . + + + @ @ @ # # @   $ $ $ $ $ $ % + + & & @ @ @ @ # # # # # ",
". . . . @ @     # * = - ; ; ; ; ; > $ % , ' @ @ @ @ # # ) ) ) ) ",
". . . . . . . ! ~ { ] - > ; ; ; ; ; ; $ ^ / ( ( @ # # @ @ ) ) ) ",
". . _ . . . * : < [ } - - > ; ; ; ; ; ; $ | 1 2 3 @ @ @ @ @ ) 4 ",
". _ _ . . ! 5 5 6 7 8 - > ; ; ; ; ; > > > $ 9 0 a b @ @ @ @ @ 4 ",
"_ _ _ . _ * c c d e f - ; ; ; ; ; ; ; ; ; ; $ g h i j j j @ @ # ",
"_ _ _ _ * k l m n 8 - o o o o o p p p p p p p $ 9 q r j & & @ 4 ",
"_ _ _ _ s k t c u - - o o o o o p p p p p p p p $ $ r & & @ # # ",
"+ + j _ v w t - - > > > > > > > ; > ; ; ; ; ; ; ; ; $ $ _ @ @ @ ",
"+ j j _ x - - > > > > > > > > > ; > ; ; ; ; ; ; ; ; ; ; $   @ @ ",
"& y _ _ - > > > > ; ; ; ; ; ; z z A A o o o B B $ $ $ $ $   y y ",
"& . . . - - - - - - - B B B B B B p p p p p B B $ C D E       y ",
". . . j F G G u H I $ J J J J K o p p p p p $ $ L M N O .       ",
". . y y P Q R R S 9 $ J J J J K p p p p p p $ T R U N O j j     ",
". y y _ P V V R W X $ J J J J K K p K J J J K $ V U Y Z j @ . . ",
"& & + `  .U V V ..$ ; ; ; > J K K J J o o o J $ +.@.#.$._ . . . ",
"  . + +  .%.U V $ ; ; ; ; ; > K K J J J J J J $ $ @.Y &._ . . . ",
". . . O #.%.%.V $ ; ; ; ; ; > ; ; J J J J J J $ $ *.D O . . . y ",
". . . . =.+.%.%.$ ; ; ; ; ; > ; ; J J J J J J $ $ -.=.O . . y . ",
". . _ . ;.@.+.%.>.$ ; ; ; > > ; ; J J J J J J $ $ ,.;.'.. & . . ",
". _ _ . ).@.@.@.!.~.$ $ {.{.> > ; K J J J J J $ ].^./.(.& & &   ",
"_ _ _ . _.:.<.[.}.|.1.$ {.{.{.> > ; K J J J K $ 2.3.4.j j   @ . ",
"_ _ _ _ 4.5.6.7.8.9.0.0.$ A o o o p o p p p p $ a.b.4.j & & @ @ ",
"_ _ _ _ 4.c.c.;.;.;.d.;.$ A o o o p o p p p p $ c.e.4.& & @ @ @ ",
"+ + j _ 4.6 f.g.h.W ;.i.$ $ {.{.> {.> {.> > > $ f.j.k._ _ @ @ @ ",
"+ j j _ 4.,.l.,.m.n.n.o.$ $ ; ; > ; ; ; ; ; ; $ p.q.k._ & & @ @ ",
"y y _ _ 4.r.b s.t.i b $ {.> ; ; > ; ; ; ; ; ; > $ k.k.& & @ y y ",
"y + + + 4.u.v.w.x.d.y.$ > > ; ; ; ; ; ; ; ; ; > $ z.k.  @ @ @ y ",
". + + j 4.A.A.B.B.B.C.$ > > ; ; ; ; ; ; ; ; ; ; $ D.k._ _ @ @ @ ",
". . y y 4.A.A.A.A.E.$ {.> ; ; ; ; ; ; ; ; ; ; ; $ F.k._ & & @ @ ",
". y y _ 4.G.G.H.H.H.$ > > ; ; ; > ; ; ; ; ; ; ; $ F.I.& & @ # # ",
"  & & _ 4.4.4.4.4.{.{.> > ; ; ; > ; ; ; ; ; ; ; > $ 4.j j j # # "};
