/* XPM */
static char * player_exit_left_0_xpm[] = {
"32 32 160 2",
"  	c #196F30",
". 	c #337803",
"+ 	c #357B05",
"@ 	c #1A7231",
"# 	c #1B7735",
"$ 	c #561300",
"% 	c #141412",
"& 	c #176B2D",
"* 	c #692E00",
"= 	c #672C00",
"- 	c #835A05",
"; 	c #5F2E5C",
"> 	c #932D8B",
", 	c #261A26",
"' 	c #602500",
") 	c #1E7F38",
"! 	c #632200",
"~ 	c #5E1B00",
"{ 	c #865D0F",
"] 	c #8A6013",
"^ 	c #8A6215",
"/ 	c #734400",
"( 	c #5C1F00",
"_ 	c #337504",
": 	c #7D5001",
"< 	c #5C1E00",
"[ 	c #966C26",
"} 	c #956D26",
"| 	c #875C13",
"1 	c #703E00",
"2 	c #6C3800",
"3 	c #5B1F00",
"4 	c #1D7C37",
"5 	c #91651F",
"6 	c #5E2000",
"7 	c #704000",
"8 	c #744A00",
"9 	c #734900",
"0 	c #83570F",
"a 	c #6C3A00",
"b 	c #571900",
"c 	c #714300",
"d 	c #5F2100",
"e 	c #754800",
"f 	c #764800",
"g 	c #81540B",
"h 	c #581A00",
"i 	c #306D05",
"j 	c #82560E",
"k 	c #704400",
"l 	c #724400",
"m 	c #F09A53",
"n 	c #804A1E",
"o 	c #744700",
"p 	c #744900",
"q 	c #7E5309",
"r 	c #531300",
"s 	c #612400",
"t 	c #734800",
"u 	c #744600",
"v 	c #317105",
"w 	c #7C6C5E",
"x 	c #47280D",
"y 	c #463D35",
"z 	c #551100",
"A 	c #6C4203",
"B 	c #704B0B",
"C 	c #541000",
"D 	c #612700",
"E 	c #652E00",
"F 	c #CBC3BC",
"G 	c #FDFDFD",
"H 	c #653000",
"I 	c #633000",
"J 	c #622F00",
"K 	c #4F0900",
"L 	c #347803",
"M 	c #520D00",
"N 	c #6D4000",
"O 	c #6E4000",
"P 	c #5B1E00",
"Q 	c #6C4200",
"R 	c #6C3F00",
"S 	c #6D3F00",
"T 	c #724800",
"U 	c #4F0B00",
"V 	c #316D05",
"W 	c #367B05",
"X 	c #500A00",
"Y 	c #6B3E00",
"Z 	c #6B3D00",
"` 	c #510700",
" .	c #357404",
"..	c #6C3E00",
"+.	c #357703",
"@.	c #6A3C00",
"#.	c #693D00",
"$.	c #500800",
"%.	c #4F0600",
"&.	c #6B3800",
"*.	c #6A3900",
"=.	c #4F0400",
"-.	c #693900",
";.	c #327105",
">.	c #4D0600",
",.	c #432341",
"'.	c #704200",
").	c #683800",
"!.	c #683700",
"~.	c #4C0700",
"{.	c #196B2D",
"].	c #4E0300",
"^.	c #561200",
"/.	c #571300",
"(.	c #591800",
"_.	c #5C1900",
":.	c #5B1800",
"<.	c #581600",
"[.	c #581500",
"}.	c #551300",
"|.	c #4D0400",
"1.	c #683E01",
"2.	c #6B4607",
"3.	c #6C4708",
"4.	c #704D0F",
"5.	c #6B4508",
"6.	c #683E00",
"7.	c #4E0500",
"8.	c #6A4709",
"9.	c #4E0200",
"0.	c #5F2700",
"a.	c #612B00",
"b.	c #602A00",
"c.	c #5F2200",
"d.	c #4C0200",
"e.	c #693700",
"f.	c #6F4300",
"g.	c #673400",
"h.	c #673200",
"i.	c #510F00",
"j.	c #571500",
"k.	c #561600",
"l.	c #531000",
"m.	c #521100",
"n.	c #724C0E",
"o.	c #714A0F",
"p.	c #744E16",
"q.	c #714D16",
"r.	c #704D14",
"s.	c #704C15",
"t.	c #633A02",
"u.	c #674007",
"v.	c #663D05",
"w.	c #633600",
"x.	c #633701",
"y.	c #613700",
"z.	c #623500",
"A.	c #613600",
"B.	c #663D03",
"C.	c #4C0300",
"  . + + + @ @ @ # # @   $ $ % % % % % % + & & @ @ @ @ # # # # # ",
". . . . @ @     # $ * = - % ; > > > > > , ' @ @ @ @ # # ) ) ) ) ",
". . . . . . . ! ~ { ] ^ % > > > > > > ; , / ( ( @ # # @ @ ) ) ) ",
". . _ . . . $ : < [ } % > > > > > > ; , , | 1 2 3 @ @ @ @ @ ) 4 ",
". _ _ . . ! 5 5 6 7 % ; ; ; > > > > > ; , 8 9 0 a b @ @ @ @ @ 4 ",
"_ _ _ . _ $ c c d % > > > > > > > > > > , e 9 f g h i i i @ @ # ",
"_ _ _ _ $ j k l % m m m m m m m n n n n n , o p 9 q r i & & @ 4 ",
"_ _ _ _ s j % % m m m m m m m m n n n n n , , 9 9 t r & & @ # # ",
"+ + i _ % % > > > > > > > > ; > ; ; ; ; ; ; ; , , u r _ _ @ @ @ ",
"+ i i % > > > > > > > > > > ; > ; ; ; ; ; ; ; ; ; , , _     @ @ ",
"& v _ % % % % % w w n n n x x y y > > > > > > ; ; ; ; , &   v v ",
"& . . . z A B % w w m m m m m w w w w w w , , , , , , ,       v ",
". . . i C D D E % % m m m m m n F G G G G % H I I J K L .       ",
". . v v M N O O P % m m m m m m F G G G G % t Q O R K L i i     ",
". v v _ M S S O % F G G G F m F F G G G G % T S S R U V i @ . . ",
"& & + W X R S S % G n n n G G F F G ; > > > % Y Y Z `  ._ . . . ",
"  . + + X ..R % % G G G G G G F F ; > > > > > % Z Z U +._ . . . ",
". . . L ` ....% % G G G G G G > > ; > > > > > % @.#.$.L . . . v ",
". . . . %.Y ..% % G G G G G G > > ; > > > > > % &.*.%.L . . v . ",
". . _ . =.Z Y % % G G G G G G > > ; ; > > > % -.-.-.=.;.. & . . ",
". _ _ . >.Z Z Z % G G G G G F > ; ; ,.,.% % '.-.).!.~.{.& & &   ",
"_ _ _ . ].^./.(.% F G G G F > ; ; ,.,.,.% _.:.<.[.}.|.i i   @ . ",
"_ _ _ _ |.1.2.3.% m m m m n m n n n x % 4.4.5.5.5.6.|.i & & @ @ ",
"_ _ _ _ |.7.7.=.% m m m m n m n n n x % 8.7.7.7.7.9.|.& & @ @ @ ",
"+ + i _ |.6 0.a.% ; ; ; ,.; ,.; ,.,.% % 7.a.a.b.0.c.d._ _ @ @ @ ",
"+ i i _ |.-.e.-.% > > > > > > ; > > % % '.'.f.g.g.h.d._ & & @ @ ",
"v v _ _ |.i.b % ; > > > > > > ; > > ; ,.% j.k.l.m.d.d.& & @ v v ",
"v + + + |.n.o.% ; > > > > > > > > > ; ; % p.q.r.s.r.d.  @ @ @ v ",
". + + i |.t.t.% > > > > > > > > > > ; ; % u.v.w.x.y.d._ _ @ @ @ ",
". . v v |.t.t.% > > > > > > > > > > > ; ,.% v.w.w.z.d._ & & @ @ ",
". v v _ |.A.A.% > > > > > > > ; > > > ; ; % v.B.B.z.C.& & @ # # ",
"  & & _ |.|.% ; > > > > > > > ; > > > ; ; ,.,.|.|.|.|.i i i # # "};
