/* XPM */
static char * exit_open_xpm[] = {
"32 32 154 2",
"  	c #196F30",
". 	c #337803",
"+ 	c #357B05",
"@ 	c #1A7231",
"# 	c #1B7735",
"$ 	c #176B2D",
"% 	c #885600",
"& 	c #7C4200",
"* 	c #5D0000",
"= 	c #742700",
"- 	c #1E7F38",
"; 	c #6F1F00",
"> 	c #824B00",
", 	c #5E0000",
"' 	c #317105",
") 	c #8D5700",
"! 	c #895200",
"~ 	c #6E2100",
"{ 	c #337504",
"] 	c #6D2100",
"^ 	c #834C00",
"/ 	c #7F4100",
"( 	c #7E4000",
"_ 	c #8C5900",
": 	c #1D7C37",
"< 	c #8F5A00",
"[ 	c #8B5000",
"} 	c #875200",
"| 	c #5F0000",
"1 	c #8E5800",
"2 	c #976100",
"3 	c #8C5600",
"4 	c #6C2D00",
"5 	c #5C0000",
"6 	c #935D00",
"7 	c #306D05",
"8 	c #966100",
"9 	c #8B5500",
"0 	c #6A2E00",
"a 	c #5B0000",
"b 	c #915E00",
"c 	c #691C00",
"d 	c #6B1600",
"e 	c #8C5500",
"f 	c #6B2C00",
"g 	c #692D00",
"h 	c #5A0000",
"i 	c #925C00",
"j 	c #671700",
"k 	c #6D2B00",
"l 	c #6B1700",
"m 	c #9B6800",
"n 	c #865200",
"o 	c #7E4300",
"p 	c #7D4200",
"q 	c #986800",
"r 	c #6A0F00",
"s 	c #671300",
"t 	c #640200",
"u 	c #612400",
"v 	c #590000",
"w 	c #6F1A00",
"x 	c #6B1100",
"y 	c #661100",
"z 	c #774000",
"A 	c #642000",
"B 	c #7E4400",
"C 	c #794600",
"D 	c #7F4600",
"E 	c #660E00",
"F 	c #764000",
"G 	c #6A2800",
"H 	c #640000",
"I 	c #7E4700",
"J 	c #640A00",
"K 	c #702500",
"L 	c #682900",
"M 	c #580000",
"N 	c #7E4100",
"O 	c #854700",
"P 	c #640700",
"Q 	c #7B4000",
"R 	c #672600",
"S 	c #662700",
"T 	c #6E2D00",
"U 	c #630200",
"V 	c #7C3F00",
"W 	c #8B5400",
"X 	c #620700",
"Y 	c #763B00",
"Z 	c #682100",
"` 	c #672100",
" .	c #601D00",
"..	c #630000",
"+.	c #620000",
"@.	c #793C00",
"#.	c #8A5300",
"$.	c #620400",
"%.	c #662200",
"&.	c #652100",
"*.	c #610000",
"=.	c #783A00",
"-.	c #8A5200",
";.	c #610500",
">.	c #773900",
",.	c #651D00",
"'.	c #6B3600",
").	c #773600",
"!.	c #783400",
"~.	c #874F00",
"{.	c #600400",
"].	c #753A00",
"^.	c #631A00",
"/.	c #631B00",
"(.	c #560000",
"_.	c #762F00",
":.	c #743000",
"<.	c #844D00",
"[.	c #773C00",
"}.	c #5F0200",
"|.	c #733500",
"1.	c #651500",
"2.	c #641600",
"3.	c #712B00",
"4.	c #722B00",
"5.	c #814B00",
"6.	c #723600",
"7.	c #713500",
"8.	c #641200",
"9.	c #550000",
"0.	c #600300",
"a.	c #804A00",
"b.	c #5F2000",
"c.	c #6C1C00",
"d.	c #7A4900",
"e.	c #713E00",
"f.	c #682A00",
"g.	c #713B00",
"h.	c #5F0800",
"i.	c #600700",
"j.	c #5F1E00",
"k.	c #681B00",
"l.	c #6B2100",
"m.	c #600000",
"n.	c #733F00",
"o.	c #6E2500",
"p.	c #732D00",
"q.	c #6E2800",
"r.	c #703400",
"s.	c #7B4500",
"t.	c #6F3500",
"u.	c #814F00",
"v.	c #6C3100",
"w.	c #7F5000",
"  . + + + @ @ @ # # @       @ @   . + + + $ $ @ @ @ @ # # # # # ",
". . . . @ @   % & * # # + + + + @ . . . $ $ = = = @ # # - - - - ",
". . . . . . ; > > , @ ' ' + + + . . . . . = ) ! ~ # # @ @ - - - ",
". . { . . . ] ^ ^ , @ @ ' ' + . . . { . . ) / ( _ ~ @ @ @ @ - : ",
". { { . . ' < [ } | @ . . . ' . . { { . . ^ / ( 1 ~ @ @ @ @ @ : ",
"{ { { . { . 2 3 4 5 { ' . . . { . { . . + ^ / ( 6 ~ 7 7 7 @ @ # ",
"{ { { { . . 8 9 0 a { { { . . . { { { + + ^ / ( b c 7 7 $ $ @ : ",
"{ { { { { d e f g h { { { { { { { { { { { ^ / ( ( i 7 $ $ @ # # ",
"+ + 7 { { j e k k a { ' ' { + + + + 7 { { l / ( m i { { { @ @ @ ",
"+ 7 7 { { j n f h h . . ' + + + + 7 7 { { l o p q r { {     @ @ ",
"$ ' { { { s t h u v . . . + + + ' ' { { { l l w x r { $ $   ' ' ",
"$ . . . 7 y z A v v . . . . . ' + + + + 7 l B C D r $ $       ' ",
". . . 7 7 E F v G v { . . . { . . + + 7 7 / o H I r . . .       ",
". . ' ' { J K L L M . { . { . . . . ' ' { / N p O r . . 7 7     ",
". ' ' { { P Q R S T . . { { { { { ' ' { { H U V W r . 7 7 @ . . ",
"$ $ + + + X Y Z `  .{ { { { { { { { + + + ..+.@.#.r { { { . . . ",
"  . + + + $.Y %.&. .{ { { { { { { . + + + +.*.=.-.r . . { . . . ",
". . . . ' ;.>.,.,.v { { + + + + { . . . ' '.).!.~.r . . . . . ' ",
". . . . . {.].^./.(.{ ' ' + + + . . . . . )._.:.<.[.7 . . . ' . ",
". . { . . }.|.1.2.(.{ { ' ' + . . . { . . ).3.4.5.6.' ' . $ . . ",
". { { . . , 7.8.(.(.{ . . . ' . . { { . . 9.X 0.a.r { $ $ $ $   ",
"{ { { . { (., (.b.(.{ ' . . . { . { { . { 9.c.d.(.(.7 7 7   @ . ",
"{ { { { . (.e.b.(.f.{ { { . . . { { { { . 9.(.* g.e.7 7 $ $ @ @ ",
"{ { { { { (.(.h.i.j.{ { { { { { { { { { { 9.9.k.9.9.7 $ $ @ @ @ ",
"+ + 7 { { (.l.m.9.j.{ ' ' { + + + + 7 { { 9.n.o.p.q.{ { { @ @ @ ",
"+ 7 7 { { 9.r.}.9.9.. . ' + + + + 7 7 { . 9.'.o.s.r.{ { $ $ @ @ ",
"' ' { { { 9.9.9.j.9.. . . + + + ' ' { { { { 9.9.9.9.{ $ $ @ ' ' ",
"' + + + 7 9.t.j.j.' . . . . . ' + + + +   { 9.u.v.r     @ @ @ ' ",
". + + 7 7 9.t.j.j.. { . . . { . . + + $ $   9.w.v.r { { { @ @ @ ",
". . ' ' { 9.t.j.9.. . { .   . . . . $ $   @ @ 9.v.9.{ { $ $ @ @ ",
". ' ' { { 9.9.9.@ . . . $ $ $   . . . . @ @ @ 9.9.9.{ $ $ @ # # ",
"  $ $ {   @ # # @ @ @       @ . . . . @ @ @ @ @ { {   7 7 7 # # "};
