/* XPM */
static char * exit_closed_xpm[] = {
"32 32 345 2",
"  	c #196F30",
". 	c #337803",
"+ 	c #357B05",
"@ 	c #1A7231",
"# 	c #1B7735",
"$ 	c #561300",
"% 	c #591900",
"& 	c #176B2D",
"* 	c #692E00",
"= 	c #672C00",
"- 	c #835A05",
"; 	c #845A08",
"> 	c #835407",
", 	c #581000",
"' 	c #815404",
") 	c #805305",
"! 	c #612600",
"~ 	c #602500",
"{ 	c #1E7F38",
"] 	c #632200",
"^ 	c #5E1B00",
"/ 	c #865D0F",
"( 	c #8A6013",
"_ 	c #8A6215",
": 	c #936A22",
"< 	c #946B23",
"[ 	c #8E651A",
"} 	c #5B1B00",
"| 	c #8F671E",
"1 	c #8E671C",
"2 	c #885F13",
"3 	c #581700",
"4 	c #744300",
"5 	c #734400",
"6 	c #5C1F00",
"7 	c #337504",
"8 	c #7D5001",
"9 	c #5C1E00",
"0 	c #966C26",
"a 	c #956D26",
"b 	c #956E25",
"c 	c #714200",
"d 	c #704400",
"e 	c #5C1C00",
"f 	c #724700",
"g 	c #734500",
"h 	c #764B00",
"i 	c #591B00",
"j 	c #875E14",
"k 	c #875C13",
"l 	c #703E00",
"m 	c #6C3800",
"n 	c #5B1F00",
"o 	c #1D7C37",
"p 	c #91651F",
"q 	c #5E2000",
"r 	c #704000",
"s 	c #794C00",
"t 	c #794B00",
"u 	c #774900",
"v 	c #632900",
"w 	c #784A00",
"x 	c #774A00",
"y 	c #642C00",
"z 	c #7D5105",
"A 	c #744A00",
"B 	c #734900",
"C 	c #83570F",
"D 	c #6C3A00",
"E 	c #571900",
"F 	c #714300",
"G 	c #5F2100",
"H 	c #81560B",
"I 	c #784E00",
"J 	c #764900",
"K 	c #754A00",
"L 	c #642E00",
"M 	c #754800",
"N 	c #764800",
"O 	c #81540B",
"P 	c #581A00",
"Q 	c #306D05",
"R 	c #82560E",
"S 	c #724400",
"T 	c #602800",
"U 	c #7B4C00",
"V 	c #662F00",
"W 	c #744700",
"X 	c #744900",
"Y 	c #7E5309",
"Z 	c #531300",
"` 	c #612400",
" .	c #704200",
"..	c #652E00",
"+.	c #7A4E00",
"@.	c #632C00",
"#.	c #784D00",
"$.	c #774C00",
"%.	c #673000",
"&.	c #734800",
"*.	c #612500",
"=.	c #81550C",
"-.	c #663200",
";.	c #7C4F00",
">.	c #764C00",
",.	c #653200",
"'.	c #744600",
").	c #5A1800",
"!.	c #5C1900",
"~.	c #5E1C00",
"{.	c #5F1F00",
"].	c #612100",
"^.	c #906C34",
"/.	c #672500",
"(.	c #7C5200",
"_.	c #663100",
":.	c #8F6B33",
"<.	c #612000",
"[.	c #5F1D00",
"}.	c #5C1800",
"|.	c #4F0900",
"1.	c #317105",
"2.	c #6B4402",
"3.	c #704B0B",
"4.	c #724C0E",
"5.	c #755214",
"6.	c #765315",
"7.	c #785517",
"8.	c #775516",
"9.	c #642500",
"0.	c #724800",
"a.	c #734600",
"b.	c #7C5101",
"c.	c #622200",
"d.	c #745113",
"e.	c #6D4A09",
"f.	c #6F490B",
"g.	c #6B4203",
"h.	c #4F0600",
"i.	c #551100",
"j.	c #6C4203",
"k.	c #714C0C",
"l.	c #765115",
"m.	c #775217",
"n.	c #642D00",
"o.	c #530B00",
"p.	c #735211",
"q.	c #6D490A",
"r.	c #6C4104",
"s.	c #500800",
"t.	c #186B2D",
"u.	c #541000",
"v.	c #612700",
"w.	c #5A1D00",
"x.	c #530D00",
"y.	c #693600",
"z.	c #7C5301",
"A.	c #520B00",
"B.	c #643100",
"C.	c #653000",
"D.	c #633000",
"E.	c #622F00",
"F.	c #347803",
"G.	c #520D00",
"H.	c #6D4000",
"I.	c #6E4000",
"J.	c #5B1E00",
"K.	c #724500",
"L.	c #7F5305",
"M.	c #6C4200",
"N.	c #6C3F00",
"O.	c #6D3F00",
"P.	c #714800",
"Q.	c #724600",
"R.	c #7E5604",
"S.	c #754B00",
"T.	c #652F00",
"U.	c #4F0B00",
"V.	c #316D05",
"W.	c #367B05",
"X.	c #500A00",
"Y.	c #714500",
"Z.	c #714400",
"`.	c #704300",
" +	c #6F4600",
".+	c #704500",
"++	c #622B00",
"@+	c #7F5506",
"#+	c #673400",
"$+	c #714700",
"%+	c #704600",
"&+	c #6B3E00",
"*+	c #6B3D00",
"=+	c #510700",
"-+	c #357404",
";+	c #6C3E00",
">+	c #602C00",
",+	c #7F5307",
"'+	c #663700",
")+	c #357703",
"!+	c #6F4200",
"~+	c #704100",
"{+	c #88692C",
"]+	c #86672A",
"^+	c #856829",
"/+	c #6A3900",
"(+	c #6A3C00",
"_+	c #693D00",
":+	c #663400",
"<+	c #6E4A0B",
"[+	c #6F4B0D",
"}+	c #5A1500",
"|+	c #683600",
"1+	c #6F4300",
"2+	c #693B00",
"3+	c #6B3800",
"4+	c #4F0400",
"5+	c #663300",
"6+	c #6E3E00",
"7+	c #6F4100",
"8+	c #6D4407",
"9+	c #6D4507",
"0+	c #6F4000",
"a+	c #673500",
"b+	c #693900",
"c+	c #327105",
"d+	c #4D0600",
"e+	c #653300",
"f+	c #693F00",
"g+	c #5D1A00",
"h+	c #500600",
"i+	c #642F00",
"j+	c #5E1E00",
"k+	c #683800",
"l+	c #683700",
"m+	c #4C0700",
"n+	c #196B2D",
"o+	c #4E0300",
"p+	c #561200",
"q+	c #571300",
"r+	c #591800",
"s+	c #8A692F",
"t+	c #5D1B00",
"u+	c #551700",
"v+	c #8B6730",
"w+	c #5B1800",
"x+	c #581600",
"y+	c #581500",
"z+	c #551300",
"A+	c #4D0400",
"B+	c #683E01",
"C+	c #6B4607",
"D+	c #6C4708",
"E+	c #714C10",
"F+	c #724D11",
"G+	c #735012",
"H+	c #5C1B00",
"I+	c #6C4100",
"J+	c #5E2700",
"K+	c #6E3F00",
"L+	c #704D0F",
"M+	c #6B4508",
"N+	c #683E00",
"O+	c #4E0500",
"P+	c #724F13",
"Q+	c #6D3E00",
"R+	c #5D2700",
"S+	c #6B4000",
"T+	c #5F2600",
"U+	c #6A4709",
"V+	c #4E0200",
"W+	c #5F2700",
"X+	c #612B00",
"Y+	c #561900",
"Z+	c #622C00",
"`+	c #5E2500",
" @	c #602A00",
".@	c #5F2200",
"+@	c #4C0200",
"@@	c #693700",
"#@	c #5B2300",
"$@	c #6A3B00",
"%@	c #6A3E00",
"&@	c #551800",
"*@	c #5D2200",
"=@	c #673200",
"-@	c #510F00",
";@	c #5A1A00",
">@	c #5A1C00",
",@	c #581800",
"'@	c #531200",
")@	c #531000",
"!@	c #510C00",
"~@	c #510E00",
"{@	c #561800",
"]@	c #571700",
"^@	c #571500",
"/@	c #561600",
"(@	c #521100",
"_@	c #714A0F",
":@	c #724C13",
"<@	c #744D14",
"[@	c #755117",
"}@	c #795820",
"|@	c #7D5C26",
"1@	c #7A551F",
"2@	c #77511A",
"3@	c #765019",
"4@	c #744E18",
"5@	c #744E16",
"6@	c #714D16",
"7@	c #704D14",
"8@	c #704C15",
"9@	c #633A02",
"0@	c #653905",
"a@	c #674006",
"b@	c #684008",
"c@	c #684108",
"d@	c #68410B",
"e@	c #68440A",
"f@	c #6F4C13",
"g@	c #694509",
"h@	c #6A430B",
"i@	c #674408",
"j@	c #694109",
"k@	c #674007",
"l@	c #663D05",
"m@	c #633600",
"n@	c #633701",
"o@	c #613700",
"p@	c #673E04",
"q@	c #674206",
"r@	c #69430D",
"s@	c #623500",
"t@	c #613600",
"u@	c #643F03",
"v@	c #69400A",
"w@	c #69420A",
"x@	c #69420C",
"y@	c #714B13",
"z@	c #674509",
"A@	c #664606",
"B@	c #673F07",
"C@	c #663D03",
"D@	c #4C0300",
"  . + + + @ @ @ # # @   $ $ $ $ % % % + + & & @ @ @ @ # # # # # ",
". . . . @ @     # $ * = - ; > , ' ) ) % ! ~ @ @ @ @ # # { { { { ",
". . . . . . . ] ^ / ( _ : < [ } | 1 2 3 4 5 6 6 @ # # @ @ { { { ",
". . 7 . . . $ 8 9 0 a b c d c e f g h i j k l m n @ @ @ @ @ { o ",
". 7 7 . . ] p p q r s t u u c v f w x y z A B C D E @ @ @ @ @ o ",
"7 7 7 . 7 $ F F G H I s u J J v f w K L A M B N O P Q Q Q @ @ # ",
"7 7 7 7 $ R d S T s I U J J M y x x u V M M W X B Y Z Q & & @ o ",
"7 7 7 7 ` R  .F ..s +.s M M M @.#.$.$.%.M A B B B &.Z & & @ # # ",
"+ + Q 7 *.=. .d -.s +.s M M M @.;.$.>.,.A A B B &.'.Z 7 7 @ @ @ ",
"+ Q Q 7 3 ).!.~.{.].^./.W W W ..(.$.h _.:.<.[.e }.3 |.7     @ @ ",
"& 1.7 7 $ 2.3.4.5.6.7.8.9.0.a.L b.h c.:.5.d.e.f.f.g.h.& &   1.1.",
"& . . . i.j.3.k.l.m.7.8.a.a.a.n.b.$.>.o.5.p.f.f.q.r.s.t.      1.",
". . . Q u.v.v...w._.x.y.a.a.a.n.z.h h _.A.B.C.D.D.E.|.F..       ",
". . 1.1.G.H.I.I.J.B _.y.K.K.K.n.L.h h _.B.W &.M.I.N.|.F.Q Q     ",
". 1.1.7 G.O.O.I.B.K.P._.Q.Q.Q.@.R.S.K T.0.0.0.O.O.N.U.V.Q @ . . ",
"& & + W.X.N.O.O.C.Y.S Z.`. +.+++@+K K #+$+Q.%+&+&+*+=+-+7 . . . ",
"  . + + X.;+N.O.C.d d  .c `.`.>+,+X A '+Y.Q.%+*+*+*+U.)+7 . . . ",
". . . F.=+;+;+O.C.!+I.I.~+ .{+]+^+} &./+Y.S Z.(+(+_+s.F.. . . 1.",
". . . . h.&+;+;+:+;+O.O.~+~+<+h.[+}+0.|+1+ .1+2+3+/+h.F.. . 1.. ",
". . 7 . 4+*+&+;+5+;+;+6+7+~+8+h.9+s.0+a+ . . .b+b+b+4+c+. & . . ",
". 7 7 . d+*+*+*+e+f+g+&+H.H.4+4+h+i+I.:+j+d  .b+k+l+m+n+& & &   ",
"7 7 7 . o+p+q+r+} e s+t+H.H.i+u+i+I.H.a+v+!.w+x+y+z+A+Q Q   @ . ",
"7 7 7 7 A+B+C+D+E+F+G+G+H+&+I+J+H.K+~.v+L+L+M+M+M+N+A+Q & & @ @ ",
"7 7 7 7 A+O+O+4+4+4+P+4+Q+*+N.R+S+S+(+T+U+O+O+O+O+V+A+& & @ @ @ ",
"+ + Q 7 A+q W+X+Y+B.4+Z+;+*+*+`+S+(+_+R+O+X+X+ @W+.@+@7 7 @ @ @ ",
"+ Q Q 7 A+b+@@b+#@$@$@%@*+*+*+&@$@_+2+*@ . .1+#+#+=@+@7 & & @ @ ",
"1.1.7 7 A+-@E ;@>@P E ,@'@)@!@U.~@'@u+{@]@^@/@)@(@+@+@& & @ 1.1.",
"1.+ + + A+4._@:@<@P+[@[@[@[@}@A+|@1@2@3@4@5@6@7@8@7@+@  @ @ @ 1.",
". + + Q A+9@9@0@0@0@a@b@c@d@e@A+f@g@h@i@j@k@l@m@n@o@+@7 7 @ @ @ ",
". . 1.1.A+9@9@9@9@p@a@q@c@c@r@A+f@g@i@i@j@q@l@m@m@s@+@7 & & @ @ ",
". 1.1.7 A+t@t@u@u@u@a@v@c@w@x@A+y@z@z@A@j@B@l@C@C@s@D@& & @ # # ",
"  & & 7 A+A+A+A+A+A+A+A+A+A+A+A+A+A+A+A+A+A+A+A+A+A+A+Q Q Q # # "};
