/* XPM */
static char * wall_xpm[] = {
"32 32 16 1",
" 	c #196F30",
".	c #337803",
"+	c #357B05",
"@	c #1A7231",
"#	c #1B7735",
"$	c #176B2D",
"%	c #1E7F38",
"&	c #317105",
"*	c #337504",
"=	c #978E84",
"-	c #1D7C37",
";	c #BCB2A9",
">	c #655E57",
",	c #306D05",
"'	c #354344",
")	c #212E2F",
" .+++@@@##@   @@ .+++$$@@@@#####",
"....@@  ####++++@...$$@@@@##%%%%",
".......@##@&&+++.......@@##@@%%%",
"..*...@@@@@@&&+====...$$@@@@@@%-",
".**..&..&@@..===;;>>>+++**@@@@@-",
"***.*...&**&==;;;;;;>>+**,,,,@@#",
"****...&***==;;;;;;;;>>*,,,,$$@-",
"******..**>=;;;;;;;;;>>>,,,$$@##",
"++,**..&&>>;;;;;;;;;;>>>>****@@@",
"+,,*****>>;;;;;;;;;;=>>>>***  @@",
"$&*****>>;;;;;;;;;==>>>>''*$$ &&",
"$...,*>>;;;;;;;;====>'''''$$   &",
"...,,*>==;;;;;;;;;;='''''''..   ",
"..&&*>>;;;;;;;;;;;;>'''''''.,,  ",
".&&**>=;;;;;;;;;;;=''''''''),@..",
"$$++>>===;;;;;;;;;>'''''')))*...",
" .++>======;;;;;;;'''')))))))...",
"...>>=========;;;='')))))))))..&",
"...>=============>))))))))))))&.",
"..*>============>'))))))))))))..",
".*>>==========>>>'))))))))))))$ ",
"**>==============)))))))))))))@.",
"**>=============>)))))))))))))@@",
"**>===========>'')))))))))))))@@",
"++,==========>'''')))))))))))@@@",
"+,,========>>''''')))))))))))$@@",
"&&**=====>>>''''''')))))))))$@&&",
"&+++,==>>>>'''''''')))))))  @@@&",
".++,,**>>>''''''''''))))-****@@@",
"..&&**@&..''''''''''))@@****$$@@",
".&&**@$$@...$''''''.@@@@***$$@##",
" $$* @##@@@   @....@@@@@** ,,,##"};
