/* XPM */
static char * 0_xpm[] = {
"32 32 40 1",
" 	c #23432C",
".	c #2A4418",
"+	c #2C461A",
"@	c #24452D",
"#	c #26482F",
"$	c #AB5724",
"%	c #FF0000",
"&	c #CE5002",
"*	c #214129",
"=	c #294D32",
"-	c #736E30",
";	c #AB5925",
">	c #AD5E02",
",	c #8D6A02",
"'	c #2A4318",
")	c #CD4D01",
"!	c #AB5422",
"~	c #284B31",
"{	c #294118",
"]	c #978E84",
"^	c #BCB2A9",
"/	c #655E57",
"(	c #273E17",
"_	c #354344",
":	c #E7756F",
"<	c #AE3334",
"[	c #212E2F",
"}	c #D7918A",
"|	c #CE292A",
"1	c #A63536",
"2	c #D33C37",
"3	c #C22E2E",
"4	c #B92021",
"5	c #CC1B1C",
"6	c #786F03",
"7	c #793D3E",
"8	c #742A2B",
"9	c #72692D",
"0	c #CC471C",
"a	c #CC491D",
" .+++@@@##@$%%%%%%%%&**@@@@#####",
"....@@  ###%%%%%%%%%%*@@@@##====",
".......@#-;%%%%%%%%%%>,@@##@@===",
"..'...@@;%%;%%%%%%%%)%%!@@@@@@=~",
".''..{..%%%%.]]]^^//%%%%''@@@@@~",
"'''.'...%%%%]]^^^^^^%%%%'((((@@#",
"''''...{%%%%]^^^^^^^%%%%((((**@~",
"''''''..%%%%^^^^^^^^%%%%(((**@##",
"++(''..{%%%%^^^^^^^^%%%%/''''@@@",
"+(('''''%%%%^^^^^^^^%%%%/'''  @@",
"*{'''''/%%%%^^^^^^]]%%%%__'** {{",
"*...('//%%%%^^^^]]]]%%%%__**   {",
"...(('/]%%%%^^^^^^^]%%%%___..   ",
"..{{'//^%%%%^^^^^^^/%%%%___.((  ",
".{{''/]^:%%:^^^^^^]_<%%<___[(@..",
"**++//]]]:}^^^^^^^/__|1__[[['...",
" .++/]]]]]]^^^^^^^____[[[[[[[...",
"...//]]]]%%]]]^^^]__[%%[[[[[[..{",
".../]]]]%%%%]]]]]/[[%%%%[[[[[[{.",
"..'/]]]]%%%%]]]]/_[[%%%%[[[[[[..",
".'//]]]]%%%%]]///_[[%%%%[[[[[[* ",
"''/]]]]]%%%%]]]]][[[%%%%[[[[[[@.",
"''/]]]]]%%%%]]]]/[[[%%%%[[[[[[@@",
"''/]]]]]%%%%]]/__[[[%%%%[[[[[[@@",
"++(]]]]]%%%%]/____[[%%%%[[[[[@@@",
"+((]]]]]%%%%/_____[[%%%%[[[[[*@@",
"{{'']]]]%%%%_______[%%%%[[[[*@{{",
"{+++(]]/%%%%_______[%%%%[[  @@@{",
".++((''/2%%3%%%%%%%%4%%5~''''@@@",
"..{{''@{.67%%%%%%%%%%89@''''**@@",
".{{''@**@..%%%%%%%%%%@@@'''**@##",
" **' @##@@@0%%%%%%%%a@@@'' (((##"};
