/* XPM */
static char * 1_xpm[] = {
"32 32 25 1",
" 	c #23432C",
".	c #2A4418",
"+	c #2C461A",
"@	c #24452D",
"#	c #26482F",
"$	c #214129",
"%	c #294D32",
"&	c #294118",
"*	c #AD5E02",
"=	c #8D6A02",
"-	c #2A4318",
";	c #978E84",
">	c #CD4D01",
",	c #FF0000",
"'	c #CC451A",
")	c #284B31",
"!	c #BCB2A9",
"~	c #655E57",
"{	c #273E17",
"]	c #354344",
"^	c #CE292A",
"/	c #212E2F",
"(	c #A63536",
"_	c #CC1B1C",
":	c #CC491D",
" .+++@@@##@   @@ .+++$$@@@@#####",
"....@@  ####++++@...$$@@@@##%%%%",
".......@##@&&+++.....*=@@##@@%%%",
"..-...@@@@@@&&+;;;;.>,,'@@@@@@%)",
".--..&..&@@..;;;!!~~,,,,--@@@@@)",
"---.-...&--&;;!!!!!!,,,,-{{{{@@#",
"----...&---;;!!!!!!!,,,,{{{{$$@)",
"------..--~;!!!!!!!!,,,,{{{$$@##",
"++{--..&&~~!!!!!!!!!,,,,~----@@@",
"+{{-----~~!!!!!!!!!!,,,,~---  @@",
"$&-----~~!!!!!!!!!;;,,,,]]-$$ &&",
"$...{-~~!!!!!!!!;;;;,,,,]]$$   &",
"...{{-~;;!!!!!!!!!!;,,,,]]]..   ",
"..&&-~~!!!!!!!!!!!!~,,,,]]].{{  ",
".&&--~;!!!!!!!!!!!;]],^]]]]/{@..",
"$$++~~;;;!!!!!!!!!~]]^(]]///-...",
" .++~;;;;;;!!!!!!!]]]]///////...",
"...~~;;;;;;;;;!!!;]]/,_//////..&",
"...~;;;;;;;;;;;;;~//,,,,//////&.",
"..-~;;;;;;;;;;;;~]//,,,,//////..",
".-~~;;;;;;;;;;~~~]//,,,,//////$ ",
"--~;;;;;;;;;;;;;;///,,,,//////@.",
"--~;;;;;;;;;;;;;~///,,,,//////@@",
"--~;;;;;;;;;;;~]]///,,,,//////@@",
"++{;;;;;;;;;;~]]]]//,,,,/////@@@",
"+{{;;;;;;;;~~]]]]]//,,,,/////$@@",
"&&--;;;;;~~~]]]]]]]/,,,,////$@&&",
"&+++{;;~~~~]]]]]]]]/,,,,//  @@@&",
".++{{--~~~]]]]]]]]]]_,,_)----@@@",
"..&&--@&..]]]]]]]]]]/,:@----$$@@",
".&&--@$$@...$]]]]]].@@@@---$$@##",
" $$- @##@@@   @....@@@@@-- {{{##"};
