/* XPM */
static char * 2_xpm[] = {
"32 32 41 1",
" 	c #23432C",
".	c #2A4418",
"+	c #2C461A",
"@	c #24452D",
"#	c #26482F",
"$	c #AB5925",
"%	c #FF0000",
"&	c #CE5002",
"*	c #214129",
"=	c #88692E",
"-	c #294D32",
";	c #ED3101",
">	c #AD5E02",
",	c #8D6A02",
"'	c #2A4318",
")	c #CD4D01",
"!	c #885E27",
"~	c #284B31",
"{	c #294118",
"]	c #978E84",
"^	c #BCB2A9",
"/	c #655E57",
"(	c #273E17",
"_	c #354344",
":	c #DA8D86",
"<	c #AE3334",
"[	c #CE292A",
"}	c #212E2F",
"|	c #E31F1F",
"1	c #8D3A3B",
"2	c #C97068",
"3	c #EC4842",
"4	c #CC1B1C",
"5	c #D33C37",
"6	c #E62E2A",
"7	c #C22E2E",
"8	c #932627",
"9	c #88642A",
"0	c #E33C01",
"a	c #AB5724",
"b	c #CC491D",
" .+++@@@##$%%%%%%%%%&**@@@@#####",
"....@@  #=%%%%%%%%%%%*@@@@##----",
".......@#=%%%%%%%%%%;>,@@##@@---",
"..'...@@@@$%%%%%%%%%)%%!@@@@@@-~",
".''..{..{@@..]]]^^//%%%%''@@@@@~",
"'''.'...{''{]]^^^^^^%%%%'((((@@#",
"''''...{''']]^^^^^^^%%%%((((**@~",
"''''''..''/]^^^^^^^^%%%%(((**@##",
"++(''..{{//^^^^^^^^^%%%%/''''@@@",
"+(('''''//^^^^^^^^^^%%%%/'''  @@",
"*{'''''//^^^^^^^^^]]%%%%__'** {{",
"*...('//^^^^^^^^]]]]%%%%__**   {",
"...(('/]]^^^^^^^^^^]%%%%___..   ",
"..{{'//^^^^^^^^^^^^/%%%%___.((  ",
".{{''/]^^^^:%%%%%%%%<%%[___}(@..",
"**++//]]]^:%%%%%%%%%|1___}}}'...",
" .++/]]]]]2%%%%%%%%%%_}}}}}}}...",
"...//]]]23%2%%%%%%%%4}}}}}}}}..{",
".../]]]]%%%%]]]]]/}}}}}}}}}}}}{.",
"..'/]]]]%%%%]]]]/_}}}}}}}}}}}}..",
".'//]]]]%%%%]]///_}}}}}}}}}}}}* ",
"''/]]]]]%%%%]]]]]}}}}}}}}}}}}}@.",
"''/]]]]]%%%%]]]]/}}}}}}}}}}}}}@@",
"''/]]]]]%%%%]]/__}}}}}}}}}}}}}@@",
"++(]]]]]%%%%]/____}}}}}}}}}}}@@@",
"+((]]]]]%%%%/_____}}}}}}}}}}}*@@",
"{{'']]]]%%%%_______}}}}}}}}}*@{{",
"{+++(]]/%%%%_______}}}}}}}  @@@{",
".++((''/56%7%%%%%%%%%8}}~''''@@@",
"..{{''@{.>7%%%%%%%%%%%9@''''**@@",
".{{''@**@..0%%%%%%%%%%9@'''**@##",
" **' @##@@@a%%%%%%%%%b@@'' (((##"};
