/* XPM */
static char * 3_xpm[] = {
"32 32 39 1",
" 	c #23432C",
".	c #2A4418",
"+	c #2C461A",
"@	c #24452D",
"#	c #26482F",
"$	c #AB5724",
"%	c #FF0000",
"&	c #CE5002",
"*	c #214129",
"=	c #AB5D28",
"-	c #294D32",
";	c #AB5925",
">	c #ED3101",
",	c #AD5E02",
"'	c #8D6A02",
")	c #2A4318",
"!	c #CD4D01",
"~	c #CC451A",
"{	c #885E27",
"]	c #284B31",
"^	c #294118",
"/	c #978E84",
"(	c #BCB2A9",
"_	c #655E57",
":	c #273E17",
"<	c #354344",
"[	c #DA8D86",
"}	c #CE292A",
"|	c #8D3A3B",
"1	c #212E2F",
"2	c #ED1818",
"3	c #A63536",
"4	c #C97068",
"5	c #CC1B1C",
"6	c #892828",
"7	c #893B3C",
"8	c #B92021",
"9	c #EC0E0E",
"0	c #CC491D",
" .+++@@@##@$%%%%%%%%&**@@@@#####",
"....@@  ##=%%%%%%%%%%*@@@@##----",
".......@##;%%%%%%%%%>,'@@##@@---",
"..)...@@@@@;%%%%%%%%!%~{@@@@@@-]",
".))..^..^@@..///((__%%%%))@@@@@]",
"))).)...^))^//((((((%%%%)::::@@#",
"))))...^)))//(((((((%%%%::::**@]",
"))))))..))_/((((((((%%%%:::**@##",
"++:))..^^__(((((((((%%%%_))))@@@",
"+::)))))__((((((((((%%%%_)))  @@",
"*^)))))__(((((((((//%%%%<<)** ^^",
"*...:)__((((((((////%%%%<<**   ^",
"...::)_//((((((((((/%%%%<<<..   ",
"..^^)__((((((((((((_%%%%<<<.::  ",
".^^))_/(((([%%%%%%%%}%%|<<<1:@..",
"**++__///([%%%%%%%%%2}3<<111)...",
" .++_/////4%%%%%%%%%%<1111111...",
"...__//////4%%%%%%%%5%5611111..^",
"..._/////////////_11%%%%111111^.",
"..)_////////////_<11%%%%111111..",
".)__//////////___<11%%%%111111* ",
"))_//////////////111%%%%111111@.",
"))_/////////////_111%%%%111111@@",
"))_///////////_<<111%%%%111111@@",
"++://////////_<<<<11%%%%11111@@@",
"+::////////__<<<<<11%%%%11111*@@",
"^^))/////___<<<<<<<1%%%%1111*@^^",
"^+++://____<<<<<<<<1%%%%11  @@@^",
".++::))___<7%%%%%%%%8%95]))))@@@",
"..^^))@^..7%%%%%%%%%590@))))**@@",
".^^))@**@.,%%%%%%%%%%@@@)))**@##",
" **) @##@@@$%%%%%%%%0@@@)) :::##"};
