/* XPM */
static char * 4_xpm[] = {
"32 32 39 1",
" 	c #23432C",
".	c #2A4418",
"+	c #2C461A",
"@	c #24452D",
"#	c #26482F",
"$	c #214129",
"%	c #736E30",
"&	c #AB5D28",
"*	c #885E27",
"=	c #AB5925",
"-	c #294D32",
";	c #88692E",
">	c #CC4D20",
",	c #FF0000",
"'	c #8C6304",
")	c #294118",
"!	c #8D6A02",
"~	c #CD4D01",
"{	c #88642A",
"]	c #2A4318",
"^	c #978E84",
"/	c #284B31",
"(	c #BCB2A9",
"_	c #655E57",
":	c #273E17",
"<	c #354344",
"[	c #CF9D95",
"}	c #EA706A",
"|	c #DA8D86",
"1	c #CE292A",
"2	c #8D3A3B",
"3	c #212E2F",
"4	c #E7756F",
"5	c #A63536",
"6	c #C5736B",
"7	c #C97068",
"8	c #CC1B1C",
"9	c #892828",
"0	c #CC491D",
" .+++@@@##@   @@ .+++$$@@@@#####",
"....@@  #%&#++++@...$*=@@@##----",
".......@;>,')+++....!~,{@##@@---",
"..]...@@,,,,))+^^^^.,,,,@@@@@@-/",
".]]..)..,,,,.^^^((__,,,,]]@@@@@/",
"]]].]...,,,,^^((((((,,,,]::::@@#",
"]]]]...),,,,^(((((((,,,,::::$$@/",
"]]]]]]..,,,,((((((((,,,,:::$$@##",
"++:]]..),,,,((((((((,,,,_]]]]@@@",
"+::]]]]],,,,((((((((,,,,_]]]  @@",
"$)]]]]]_,,,,((((((^^,,,,<<]$$ ))",
"$...:]__,,,,((((^^^^,,,,<<$$   )",
"...::]_^,,,,(((((((^,,,,<<<..   ",
"..))]__(,,,,(((((((_,,,,<<<.::  ",
".))]]_^([},|,,,,,,,,1,12<<<3:@..",
"$$++__^^^[4,,,,,,,,,,15<<333]...",
" .++_^^^^^6,,,,,,,,,,53333333...",
"...__^^^^^^7,,,,,,,,8,8333333..)",
"..._^^^^^^^^^^^^^_33,,,,333333).",
"..]_^^^^^^^^^^^^_<33,,,,333333..",
".]__^^^^^^^^^^___<33,,,,333333$ ",
"]]_^^^^^^^^^^^^^^333,,,,333333@.",
"]]_^^^^^^^^^^^^^_333,,,,333333@@",
"]]_^^^^^^^^^^^_<<333,,,,333333@@",
"++:^^^^^^^^^^_<<<<33,,,,33333@@@",
"+::^^^^^^^^__<<<<<33,,,,33333$@@",
"))]]^^^^^___<<<<<<<3,,,,3333$@))",
")+++:^^____<<<<<<<<3,,,,33  @@@)",
".++::]]___<<<<<<<<<<,,,,/]]]]@@@",
"..))]]@)..<<<<<<<<<<9,,{]]]]$$@@",
".))]]@$$@...$<<<<<<.@=0@]]]$$@##",
" $$] @##@@@   @....@@@@@]] :::##"};
