/* XPM */
static char * 5_xpm[] = {
"32 32 41 1",
" 	c #23432C",
".	c #2A4418",
"+	c #2C461A",
"@	c #24452D",
"#	c #26482F",
"$	c #AB5724",
"%	c #FF0000",
"&	c #776228",
"*	c #214129",
"=	c #506E2F",
"-	c #294D32",
";	c #736E30",
">	c #AB5925",
",	c #E33801",
"'	c #E33C01",
")	c #786F03",
"!	c #2A4318",
"~	c #7D6E02",
"{	c #284B31",
"]	c #294118",
"^	c #CD4D01",
"/	c #978E84",
"(	c #BCB2A9",
"_	c #655E57",
":	c #273E17",
"<	c #354344",
"[	c #E7756F",
"}	c #DA8D86",
"|	c #CE292A",
"1	c #212E2F",
"2	c #CF9D95",
"3	c #E31F1F",
"4	c #892828",
"5	c #C97068",
"6	c #CC1B1C",
"7	c #AB2223",
"8	c #7D3D3E",
"9	c #B92021",
"0	c #EC0E0E",
"a	c #CC491D",
"b	c #77682C",
" .+++@@@##@$%%%%%%%%%&*@@@@#####",
"....@@  ###%%%%%%%%%%%=@@@##----",
".......@#;>,%%%%%%%%%')@@##@@---",
"..!...@@@>%>%%%%%%%%%~**@@@@@@-{",
".!!..]..%%%^.///((___+++!!@@@@@{",
"!!!.!...%%%%//((((((__+!!::::@@#",
"!!!!...]%%%%/((((((((__!::::**@{",
"!!!!!!..%%%%(((((((((___:::**@##",
"++:!!..]%%%%(((((((((____!!!!@@@",
"+::!!!!!%%%%((((((((/____!!!  @@",
"*]!!!!!_%%%%((((((//____<<!** ]]",
"*...:!__%%%%((((////_<<<<<**   ]",
"...::!_/%%%%(((((((/<<<<<<<..   ",
"..]]!__(%%%[(((((((_<<<<<<<.::  ",
".]]!!_/((}%}%%%%%%%%|<<<<<<1:@..",
"**++__///2[%%%%%%%%%%|<<<111!...",
" .++_//////[%%%%%%%%%34111111...",
"...__//////5%%%%%%%%6%%611111..]",
"..._/////////////_117%%%111111].",
"..!_////////////_<11%%%%111111..",
".!__//////////___<11%%%%111111* ",
"!!_//////////////111%%%%111111@.",
"!!_/////////////_111%%%%111111@@",
"!!_///////////_<<111%%%%111111@@",
"++://////////_<<<<11%%%%11111@@@",
"+::////////__<<<<<11%%%%11111*@@",
"]]!!/////___<<<<<<<1%%%%1111*@]]",
"]+++://____<<<<<<<<1%%%%11  @@@]",
".++::!!___8%%%%%%%%%9%06{!!!!@@@",
"..]]!!@].~3%%%%%%%%%6%a@!!!!**@@",
".]]!!@**@~%%%%%%%%%%%@@@!!!**@##",
" **! @##@@b%%%%%%%%%a@@@!! :::##"};
