/* XPM */
static char * 6_xpm[] = {
"32 32 47 1",
" 	c #23432C",
".	c #2A4418",
"+	c #2C461A",
"@	c #24452D",
"#	c #26482F",
"$	c #AB5724",
"%	c #FF0000",
"&	c #AE6103",
"*	c #726229",
"=	c #214129",
"-	c #E23512",
";	c #AB5422",
">	c #294D32",
",	c #736E30",
"'	c #AB5925",
")	c #8D6A02",
"!	c #2A4318",
"~	c #CC491D",
"{	c #AD5E02",
"]	c #7D6E02",
"^	c #284B31",
"/	c #294118",
"(	c #AD5903",
"_	c #CD4D01",
":	c #978E84",
"<	c #BCB2A9",
"[	c #655E57",
"}	c #273E17",
"|	c #354344",
"1	c #DA8D86",
"2	c #8D3A3B",
"3	c #212E2F",
"4	c #CF9D95",
"5	c #E7756F",
"6	c #E31F1F",
"7	c #B77D74",
"8	c #DD5C56",
"9	c #CE292A",
"0	c #C97068",
"a	c #CC1B1C",
"b	c #892828",
"c	c #AB2223",
"d	c #D33C37",
"e	c #E62E2A",
"f	c #C22E2E",
"g	c #B92021",
"h	c #EC0E0E",
" .+++@@@##@$%%%%%%%%&*=@@@@#####",
"....@@  ###%%%%%%%%%-;@@@@##>>>>",
".......@#,'%%%%%%%%%%).@@##@@>>>",
"..!...@@@'%~%%%%%%%%{]==@@@@@@>^",
".!!../..(%%_.:::<<[[[+++!!@@@@@^",
"!!!.!...%%%%::<<<<<<[[+!!}}}}@@#",
"!!!!.../%%%%:<<<<<<<<[[!}}}}==@^",
"!!!!!!..%%%%<<<<<<<<<[[[}}}==@##",
"++}!!../%%%%<<<<<<<<<[[[[!!!!@@@",
"+}}!!!!!%%%%<<<<<<<<:[[[[!!!  @@",
"=/!!!!![%%%%<<<<<<::[[[[||!== //",
"=...}![[%%%%<<<<::::[|||||==   /",
"...}}![:%%%%<<<<<<<:|||||||..   ",
"..//![[<%%%%<<<<<<<[|||||||.}}  ",
".//!![:<1%%1%%%%%%%%2||||||3}@..",
"==++[[:::45%%%%%%%%%62|||333!...",
" .++[::::78%%%%%%%%%%93333333...",
"...[[::::0%0%%%%%%%%a%%b33333../",
"...[::::0%%%:::::[33%%%%333333/.",
"..![::::%%%%::::[|33%%%%333333..",
".![[::::%%%%::[[[|33%%%%333333= ",
"!![:::::%%%%:::::333%%%%333333@.",
"!![:::::%%%%::::[333%%%%333333@@",
"!![:::::%%%%::[||333%%%%333333@@",
"++}:::::%%%%:[||||33%%%%33333@@@",
"+}}:::::%%%%[|||||33%%%%33333=@@",
"//!!::::%%%%|||||||3%%%%3333=@//",
"/+++}::[%%%%|||||||3c%%%33  @@@/",
".++}}!![de%f%%%%%%%%ghha^!!!!@@@",
"..//!!@/.{66%%%%%%%%%a'@!!!!==@@",
".//!!@==@..%%%%%%%%%%@@@!!!==@##",
" ==! @##@@@$%%%%%%%%~@@@!! }}}##"};
