/* XPM */
static char * 7_xpm[] = {
"32 32 37 1",
" 	c #23432C",
".	c #2A4418",
"+	c #2C461A",
"@	c #24452D",
"#	c #26482F",
"$	c #AB5724",
"%	c #FF0000",
"&	c #CE5002",
"*	c #214129",
"=	c #AB5D28",
"-	c #294D32",
";	c #344C33",
">	c #AB5925",
",	c #E33801",
"'	c #ED3101",
")	c #AD5E02",
"!	c #8D6A02",
"~	c #2A4318",
"{	c #CD4D01",
"]	c #CC451A",
"^	c #284B31",
"/	c #294118",
"(	c #978E84",
"_	c #BCB2A9",
":	c #655E57",
"<	c #B84944",
"[	c #8D6C04",
"}	c #273E17",
"|	c #354344",
"1	c #A63536",
"2	c #CE292A",
"3	c #212E2F",
"4	c #612B2C",
"5	c #CC1B1C",
"6	c #932627",
"7	c #EC0E0E",
"8	c #CC491D",
" .+++@@@##@$%%%%%%%%&**@@@@#####",
"....@@  ##=%%%%%%%%%%*@@@@##----",
".......@#;>,%%%%%%%%')!@@##@@---",
"..~...@@@@@>%%%%%%%{{%]*@@@@@@-^",
".~~../../@@..(((__::<%%[~~@@@@@^",
"~~~.~.../~~/((______%%%%~}}}}@@#",
"~~~~.../~~~((_______%%%%}}}}**@^",
"~~~~~~..~~:(________%%%%}}}**@##",
"++}~~..//::_________%%%%:~~~~@@@",
"+}}~~~~~::__________%%%%:~~~  @@",
"*/~~~~~::_________((%%%%||~** //",
"*...}~::________((((%%%%||**   /",
"...}}~:((__________(%%%%|||..   ",
"..//~::____________:%%%%|||.}}  ",
".//~~:(___________(|1%%2|||3}@..",
"**++::(((_________:||21||333~...",
" .++:((((((_______||||3333333...",
"...::(((((((((___(||4%5333333../",
"...:(((((((((((((:33%%%%333333/.",
"..~:((((((((((((:|33%%%%333333..",
".~::((((((((((:::|33%%%%333333* ",
"~~:((((((((((((((333%%%%333333@.",
"~~:(((((((((((((:333%%%%333333@@",
"~~:(((((((((((:||333%%%%333333@@",
"++}((((((((((:||||33%%%%33333@@@",
"+}}((((((((::|||||33%%%%33333*@@",
"//~~(((((:::|||||||3%%%%3333*@//",
"/+++}((::::||||||||3%%%%33  @@@/",
".++}}~~:::||||||||||6%75^~~~~@@@",
"..//~~@/..||||||||||368@~~~~**@@",
".//~~@**@...*||||||.@@@@~~~**@##",
" **~ @##@@@   @....@@@@@~~ }}}##"};
