/* XPM */
static char * 8_xpm[] = {
"32 32 46 1",
" 	c #23432C",
".	c #2A4418",
"+	c #2C461A",
"@	c #24452D",
"#	c #26482F",
"$	c #AB5724",
"%	c #FF0000",
"&	c #CE5002",
"*	c #214129",
"=	c #88692E",
"-	c #885E27",
";	c #294D32",
">	c #736E30",
",	c #AB5925",
"'	c #E33801",
")	c #CD4D01",
"!	c #8D6A02",
"~	c #2A4318",
"{	c #284B31",
"]	c #294118",
"^	c #AD5903",
"/	c #978E84",
"(	c #BCB2A9",
"_	c #655E57",
":	c #273E17",
"<	c #354344",
"[	c #DA8D86",
"}	c #CE292A",
"|	c #8D3A3B",
"1	c #212E2F",
"2	c #CF9D95",
"3	c #E7756F",
"4	c #A63536",
"5	c #B77D74",
"6	c #C97068",
"7	c #A42425",
"8	c #CC1B1C",
"9	c #892828",
"0	c #DD5C56",
"a	c #D33C37",
"b	c #C22E2E",
"c	c #B92021",
"d	c #AD5E02",
"e	c #AE3334",
"f	c #AB2223",
"g	c #CC491D",
" .+++@@@##@$%%%%%%%%&**@@@@#####",
"....@@  ##=%%%%%%%%%%-@@@@##;;;;",
".......@#>,'%%%%%%%%%)!@@##@@;;;",
"..~...@@@,%,%%%%%%%%)%%-@@@@@@;{",
".~~..]..^%%%.///((__%%%%~~@@@@@{",
"~~~.~...%%%%//((((((%%%%~::::@@#",
"~~~~...]%%%%/(((((((%%%%::::**@{",
"~~~~~~..%%%%((((((((%%%%:::**@##",
"++:~~..]%%%%((((((((%%%%_~~~~@@@",
"+::~~~~~%%%%((((((((%%%%_~~~  @@",
"*]~~~~~_%%%%((((((//%%%%<<~** ]]",
"*...:~__%%%%((((////%%%%<<**   ]",
"...::~_/%%%%(((((((/%%%%<<<..   ",
"..]]~__(%%%%(((((((_%%%%<<<.::  ",
".]]~~_/([%%[%%%%%%%%}%%|<<<1:@..",
"**++__///23%%%%%%%%%%44<<111~...",
" .++_////56%%%%%%%%%%41111111...",
"...__///6%%6%%%%%%%%7%8911111..]",
"..._////%%%0/////_11%%%%111111].",
"..~_////%%%%////_<11%%%%111111..",
".~__////%%%%//___<11%%%%111111* ",
"~~_/////%%%%/////111%%%%111111@.",
"~~_/////%%%%////_111%%%%111111@@",
"~~_/////%%%%//_<<111%%%%111111@@",
"++://///%%%%/_<<<<11%%%%11111@@@",
"+:://///%%%%_<<<<<11%%%%11111*@@",
"]]~~////%%%%<<<<<<<1%%%%1111*@]]",
"]+++://_%%%%<<<<<<<1%%%%11  @@@]",
".++::~~_a%%b%%%%%%%%c%%8{~~~~@@@",
"..]]~~@].de%%%%%%%%%%fg@~~~~**@@",
".]]~~@**@..%%%%%%%%%%,@@~~~**@##",
" **~ @##@@@$%%%%%%%%g@@@~~ :::##"};
