/* XPM */
static char * 9_xpm[] = {
"32 32 39 1",
" 	c #23432C",
".	c #2A4418",
"+	c #2C461A",
"@	c #24452D",
"#	c #26482F",
"$	c #AB5724",
"%	c #FF0000",
"&	c #CE5002",
"*	c #214129",
"=	c #294D32",
"-	c #736E30",
";	c #AB5925",
">	c #E33801",
",	c #ED3101",
"'	c #AD5E02",
")	c #8D6A02",
"!	c #2A4318",
"~	c #CD4D01",
"{	c #CC451A",
"]	c #284B31",
"^	c #294118",
"/	c #978E84",
"(	c #BCB2A9",
"_	c #655E57",
":	c #273E17",
"<	c #354344",
"[	c #E7756F",
"}	c #CF9D95",
"|	c #DA8D86",
"1	c #CE292A",
"2	c #212E2F",
"3	c #E31F1F",
"4	c #A63536",
"5	c #C97068",
"6	c #CC1B1C",
"7	c #932627",
"8	c #EC0E0E",
"9	c #612B2C",
"0	c #CC491D",
" .+++@@@##@$%%%%%%%%&**@@@@#####",
"....@@  ###%%%%%%%%%%*@@@@##====",
".......@#-;>%%%%%%%%,')@@##@@===",
"..!...@@;%%;%%%%%%%%~%%{@@@@@@=]",
".!!..^..%%%%.///((__%%%%!!@@@@@]",
"!!!.!...%%%%//((((((%%%%!::::@@#",
"!!!!...^%%%%/(((((((%%%%::::**@]",
"!!!!!!..%%%%((((((((%%%%:::**@##",
"++:!!..^%%%%((((((((%%%%_!!!!@@@",
"+::!!!!!%%%%((((((((%%%%_!!!  @@",
"*^!!!!!_%%%%((((((//%%%%<<!** ^^",
"*...:!__%%%%((((////%%%%<<**   ^",
"...::!_/%%%%(((((((/%%%%<<<..   ",
"..^^!__(%%%[(((((((_%%%%<<<.::  ",
".^^!!_/(}%%|%%%%%%%%1%%1<<<2:@..",
"**++__///}[%%%%%%%%%314<<222!...",
" .++_/////5%%%%%%%%%%<2222222...",
"...__//////5%%%%%%%%6%6722222..^",
"..._/////////////_22%%%%222222^.",
"..!_////////////_<22%%%%222222..",
".!__//////////___<22%%%%222222* ",
"!!_//////////////222%%%%222222@.",
"!!_/////////////_222%%%%222222@@",
"!!_///////////_<<222%%%%222222@@",
"++://////////_<<<<22%%%%22222@@@",
"+::////////__<<<<<22%%%%22222*@@",
"^^!!/////___<<<<<<<2%%%%2222*@^^",
"^+++://____<<<<<<<<2%%%%22  @@@^",
".++::!!___<<<<<<<<<<7%86]!!!!@@@",
"..^^!!@^..<<<<<<<<<<960@!!!!**@@",
".^^!!@**@...*<<<<<<.@@@@!!!**@##",
" **! @##@@@   @....@@@@@!! :::##"};
