/* XPM */
static char * collectible_0_xpm[] = {
"32 32 16 1",
" 	c #196F30",
".	c #337803",
"+	c #357B05",
"@	c #1A7231",
"#	c #1B7735",
"$	c #176B2D",
"%	c #1E7F38",
"&	c #317105",
"*	c #337504",
"=	c #1D7C37",
"-	c #306D05",
";	c #000000",
">	c #FFFED0",
",	c #FF9600",
"'	c #FFB300",
")	c #FFF700",
" .+++@@@##@   @@ .+++$$@@@@#####",
"....@@  ####++++@...$$@@@@##%%%%",
".......@##@&&+++.......@@##@@%%%",
"..*...@@@@@@&&+...*...$$@@@@@@%=",
".**..&..&@@...&..**..+++**@@@@@=",
"***.*...&**&...*.*..+++**----@@#",
"****...&*****..;;**+++**----$$@=",
"******..******;>,;****..---$$@##",
"++-**..&&**&*;>>,,;**..&-****@@@",
"+--*****....;>>>,,,;********  @@",
"$&******&...;>>>''';*******$$ &&",
"$...-***&&..;>>>''';-***.*$$   &",
"...--**...*.;>>>''';-**.*....   ",
"..&&***&...*;>>>''';***&....--  ",
".&&*****&...;)))''';*****..--@..",
"$$++++&*****;)))''';++&******...",
" .+++--*****;)))''';+--**...*...",
"....&&******;)))''';&&**--.....&",
".......&***&;)))''';...&*--...&.",
"..*...&&****;)))''';..&&**&&.$..",
".**..&...**.;)))''';.&...**$$$$ ",
"***.*...&&*&;)))''';*...*---- @.",
"****...&&***;))),,,;...&----$$@@",
"******..****&;)),,;***..---$$@@@",
"++-**..&&**&&*;),;-**..&-****@@@",
"+--*****....&++;;--*..******$$@@",
"&&******&....+++&&*********$$@&&",
"&+++-***&&.....&++++ ***.*  @@@&",
".++--**...*...*..++$$ *@=****@@@",
"..&&**@&...*. ....$$ @@@****$$@@",
".&&**@$$@...$$$ ....@@@@***$$@##",
" $$* @##@@@   @....@@@@@** ---##"};
